<?xml version="1.0" encoding="utf-8"?>
<!-- Generator: Adobe Illustrator 17.1.0, SVG Export Plug-In . SVG Version: 6.00 Build 0)  -->
<!DOCTYPE svg PUBLIC "-//W3C//DTD SVG 1.1//EN" "http://www.w3.org/Graphics/SVG/1.1/DTD/svg11.dtd">
<svg version="1.1" id="Layer_1" xmlns="http://www.w3.org/2000/svg" xmlns:xlink="http://www.w3.org/1999/xlink" x="0px" y="0px"
	 viewBox="0 0 562 398" enable-background="new 0 0 562 398" xml:space="preserve">
<g id="XMLID_19_">
	<path id="XMLID_39_" fill="#1E9C84" d="M41.722,206.045c16.522,0,31.853,12.555,31.853,34.366
		c0,21.806-15.331,34.361-31.853,34.361c-16.656,0-31.986-12.555-31.986-34.361C9.736,218.6,25.066,206.045,41.722,206.045z
		 M41.722,259.045c7.93,0,12.026-7.272,12.026-18.635c0-11.368-4.096-18.639-12.026-18.639c-8.063,0-12.03,7.272-12.03,18.639
		C29.692,251.774,33.659,259.045,41.722,259.045z"/>
	<path id="XMLID_36_" fill="#1E9C84" d="M106.353,278.343v19.164H86.927v-89.879h15.86l1.321,6.476h0.529
		c5.155-4.625,11.764-8.059,18.635-8.059c15.864,0,25.644,13.085,25.644,33.307c0,22.469-13.48,35.42-27.623,35.42
		c-5.684,0-10.972-2.508-15.597-6.871L106.353,278.343z M116.796,258.912c6.742,0,12.159-5.813,12.159-19.298
		c0-11.764-3.567-17.71-11.368-17.71c-3.963,0-7.401,1.85-11.234,5.946v26.832C109.791,257.854,113.491,258.912,116.796,258.912z"/>
	<path id="XMLID_33_" fill="#1E9C84" d="M189.761,206.045c18.635,0,27.89,13.614,27.89,31.457c0,3.434-0.396,6.609-0.796,8.192
		h-39.254c1.717,9.913,8.326,14.276,17.052,14.276c4.888,0,9.384-1.454,14.143-4.363l6.476,11.764
		c-6.742,4.625-15.464,7.401-23.265,7.401c-18.768,0-33.174-12.689-33.174-34.361C158.833,219.129,174.035,206.045,189.761,206.045z
		 M201.129,233.668c0-7.534-3.171-12.822-10.972-12.822c-6.08,0-11.368,4.096-12.689,12.822H201.129z"/>
	<path id="XMLID_31_" fill="#1E9C84" d="M231.136,207.628h15.86l1.321,8.33h0.529c5.551-5.288,12.159-9.913,21.014-9.913
		c14.276,0,20.356,10.043,20.356,26.432v40.712h-19.431v-38.199c0-9.518-2.508-12.426-8.059-12.426
		c-4.892,0-7.934,2.25-12.164,6.346v44.279h-19.427V207.628z"/>
	<path id="XMLID_28_" fill="#1E9C84" d="M330.529,206.045c7.272,0,11.63,2.642,16.127,6.871l-0.796-10.047v-22.335h19.431v92.655
		h-15.86l-1.321-6.476h-0.529c-4.625,4.625-11.105,8.059-17.447,8.059c-16.256,0-26.832-12.951-26.832-34.361
		C303.301,218.996,316.652,206.045,330.529,206.045z M335.154,258.912c4.23,0,7.534-1.583,10.705-5.946v-26.832
		c-3.434-3.171-7.267-4.23-10.834-4.23c-6.213,0-11.764,5.817-11.764,18.239C323.261,253.099,327.62,258.912,335.154,258.912z"/>
	<path id="XMLID_25_" fill="#1E9C84" d="M416.974,231.022c-0.396-5.813-3.305-9.513-10.309-9.513
		c-5.551,0-11.101,2.246-17.447,5.946l-6.871-12.822c8.326-5.021,17.71-8.588,28.019-8.588c16.789,0,26.04,9.513,26.04,29.607
		v37.537h-15.86l-1.454-6.742h-0.396c-5.555,4.892-11.764,8.326-19.169,8.326c-11.893,0-19.427-8.722-19.427-19.823
		C380.1,241.202,391.068,233.668,416.974,231.022z M406.136,259.704c4.496,0,7.405-2.113,10.839-5.55v-11.497
		c-13.876,1.85-18.373,5.813-18.373,10.839C398.602,257.724,401.51,259.704,406.136,259.704z"/>
	<path id="XMLID_23_" fill="#1E9C84" d="M455.703,222.83h-8.988v-14.405l10.047-0.796l2.246-17.447h16.127v17.447h15.726v15.201
		h-15.726v26.302c0,7.401,3.304,10.443,8.459,10.443c2.113,0,4.492-0.663,6.213-1.321l3.038,14.139
		c-3.438,1.058-8.192,2.379-14.539,2.379c-16.256,0-22.602-10.176-22.602-25.377V222.83z"/>
	<path id="XMLID_20_" fill="#1E9C84" d="M536.594,231.022c-0.396-5.813-3.305-9.513-10.309-9.513
		c-5.551,0-11.101,2.246-17.448,5.946l-6.871-12.822c8.326-5.021,17.71-8.588,28.019-8.588c16.789,0,26.04,9.513,26.04,29.607
		v37.537h-15.86l-1.454-6.742h-0.396c-5.555,4.892-11.764,8.326-19.169,8.326c-11.893,0-19.427-8.722-19.427-19.823
		C499.72,241.202,510.687,233.668,536.594,231.022z M525.755,259.704c4.496,0,7.405-2.113,10.839-5.55v-11.497
		c-13.876,1.85-18.373,5.813-18.373,10.839C518.221,257.724,521.13,259.704,525.755,259.704z"/>
</g>
<g id="XMLID_5_">
	<path id="XMLID_17_" fill="#000100" d="M20.655,356.481c5.507,0,9.614,4.322,9.614,10.047c0,5.619-4.107,9.938-9.614,9.938
		c-5.51,0-9.614-4.318-9.614-9.938C11.04,360.802,15.144,356.481,20.655,356.481z"/>
	<path id="XMLID_15_" fill="#000100" d="M46.258,359.076c4.86,3.671,9.287,5.616,13.827,5.616c4.751,0,6.804-1.727,6.804-4.536
		c0-3.566-5.401-5.187-10.912-7.346c-6.481-2.486-14.151-6.914-14.151-15.772c0-9.938,8.102-16.742,20.526-16.742
		c8.208,0,14.256,3.348,18.901,6.804l-7.128,9.505c-3.889-2.81-7.561-4.536-11.344-4.536c-4.104,0-6.048,1.512-6.048,4.213
		c0,3.457,4.969,4.754,10.479,6.804c6.804,2.486,14.474,6.266,14.474,16.095c0,9.723-7.67,17.284-22.035,17.284
		c-7.023,0-15.125-3.024-20.526-7.452L46.258,359.076z"/>
	<path id="XMLID_13_" fill="#000100" d="M87.303,321.59h15.772l5.187,24.848c0.862,5.292,1.512,10.476,2.374,15.877h0.433
		c0.974-5.401,1.839-10.803,3.133-15.877l5.943-24.848h13.718l6.048,24.848c1.298,5.292,2.268,10.476,3.351,15.877h0.429
		c0.974-5.401,1.512-10.585,2.486-15.877l5.078-24.848h14.689l-12.853,53.581h-18.581l-4.86-21.391
		c-1.08-4.969-1.945-9.938-2.915-15.663h-0.433c-0.974,5.725-1.73,10.694-2.701,15.663l-4.754,21.391h-18.149L87.303,321.59z"/>
	<path id="XMLID_10_" fill="#000100" d="M174.267,305.385c0-4.86,3.889-8.208,9.182-8.208c5.401,0,9.182,3.348,9.182,8.208
		c0,4.863-3.78,8.32-9.182,8.32C178.156,313.706,174.267,310.249,174.267,305.385z M175.565,321.59h15.877v53.581h-15.877V321.59z"
		/>
	<path id="XMLID_8_" fill="#000100" d="M207.755,359.076c4.86,3.671,9.287,5.616,13.827,5.616c4.751,0,6.804-1.727,6.804-4.536
		c0-3.566-5.401-5.187-10.912-7.346c-6.481-2.486-14.151-6.914-14.151-15.772c0-9.938,8.102-16.742,20.526-16.742
		c8.208,0,14.26,3.348,18.901,6.804l-7.128,9.505c-3.889-2.81-7.561-4.536-11.341-4.536c-4.107,0-6.052,1.512-6.052,4.213
		c0,3.457,4.969,4.754,10.479,6.804c6.804,2.486,14.474,6.266,14.474,16.095c0,9.723-7.67,17.284-22.035,17.284
		c-7.023,0-15.125-3.024-20.526-7.452L207.755,359.076z"/>
	<path id="XMLID_6_" fill="#000100" d="M255.611,359.076c4.86,3.671,9.287,5.616,13.827,5.616c4.751,0,6.805-1.727,6.805-4.536
		c0-3.566-5.401-5.187-10.912-7.346c-6.481-2.486-14.15-6.914-14.15-15.772c0-9.938,8.102-16.742,20.526-16.742
		c8.208,0,14.256,3.348,18.901,6.804l-7.128,9.505c-3.889-2.81-7.561-4.536-11.344-4.536c-4.104,0-6.048,1.512-6.048,4.213
		c0,3.457,4.969,4.754,10.479,6.804c6.804,2.486,14.474,6.266,14.474,16.095c0,9.723-7.67,17.284-22.035,17.284
		c-7.022,0-15.125-3.024-20.526-7.452L255.611,359.076z"/>
</g>
<g id="XMLID_2_">
	<path id="XMLID_4_" fill="#209B83" d="M53.495,45.683c19.777-14.111,47.476-12.358,65.22,5.378
		c17.737,17.739,19.494,45.442,5.379,65.22l18.887,18.887c24.335-30.249,22.491-74.733-5.574-102.8
		c-28.057-28.059-72.55-29.907-102.8-5.574L53.495,45.683z"/>
	<path id="XMLID_3_" d="M111.52,128.629c-19.712,13.461-46.884,11.486-64.377-6c-17.483-17.485-19.462-44.66-5.999-64.376
		L22.258,39.367C-1.385,69.595,0.642,113.51,28.453,141.323c15.029,15.029,34.774,22.544,54.524,22.544
		c16.786,0,33.543-5.487,47.432-16.349L111.52,128.629z"/>
</g>
</svg>
