<?xml version="1.0" encoding="utf-8"?>
<!-- Generator: Adobe Illustrator 17.1.0, SVG Export Plug-In . SVG Version: 6.00 Build 0)  -->
<!DOCTYPE svg PUBLIC "-//W3C//DTD SVG 1.1//EN" "http://www.w3.org/Graphics/SVG/1.1/DTD/svg11.dtd">
<svg version="1.1" id="Layer_1" xmlns="http://www.w3.org/2000/svg" xmlns:xlink="http://www.w3.org/1999/xlink" x="0px" y="0px"
	 viewBox="0 0 482 57.783" enable-background="new 0 0 482 57.783" xml:space="preserve">
<g>
	<g>
		<path fill="#109C81" d="M15.855,14.22c7.675,0,14.795,5.832,14.795,15.961s-7.12,15.961-14.795,15.961
			C8.12,46.142,1,40.31,1,30.181S8.12,14.22,15.855,14.22z M15.855,38.835c3.683,0,5.586-3.376,5.586-8.655
			c0-5.28-1.903-8.656-5.586-8.656c-3.743,0-5.586,3.376-5.586,8.656C10.269,35.46,12.112,38.835,15.855,38.835z"/>
		<path fill="#109C81" d="M45.867,47.799v8.9h-9.023V14.957h7.366l0.614,3.007h0.246c2.394-2.149,5.463-3.744,8.655-3.744
			c7.366,0,11.909,6.077,11.909,15.469c0,10.436-6.263,16.452-12.829,16.452c-2.64,0-5.097-1.167-7.243-3.193L45.867,47.799z
			 M50.716,38.774c3.132,0,5.649-2.7,5.649-8.962c0-5.463-1.657-8.226-5.28-8.226c-1.84,0-3.437,0.86-5.217,2.763V36.81
			C47.465,38.284,49.182,38.774,50.716,38.774z"/>
		<path fill="#109C81" d="M84.594,14.22c8.655,0,12.952,6.323,12.952,14.609c0,1.597-0.183,3.07-0.369,3.806H78.946
			c0.8,4.605,3.869,6.63,7.92,6.63c2.272,0,4.357-0.676,6.569-2.026l3.009,5.463c-3.132,2.149-7.183,3.439-10.806,3.439
			c-8.718,0-15.406-5.893-15.406-15.961C70.231,20.298,77.288,14.22,84.594,14.22z M89.875,27.049c0-3.499-1.474-5.955-5.097-5.955
			c-2.823,0-5.277,1.903-5.892,5.955H89.875z"/>
		<path fill="#109C81" d="M103.801,14.957h7.366l0.614,3.867h0.246c2.577-2.456,5.646-4.605,9.76-4.605
			c6.629,0,9.452,4.666,9.452,12.278v18.907h-9.023V27.664c0-4.42-1.166-5.77-3.746-5.77c-2.269,0-3.683,1.043-5.646,2.946v20.565
			h-9.023V14.957z"/>
		<path fill="#109C81" d="M149.954,14.22c3.377,0,5.403,1.227,7.492,3.192l-0.369-4.664V2.372h9.023v43.032h-7.366l-0.614-3.007
			h-0.246c-2.149,2.147-5.157,3.744-8.103,3.744c-7.552,0-12.461-6.016-12.461-15.961S143.511,14.22,149.954,14.22z M152.102,38.774
			c1.966,0,3.5-0.736,4.975-2.762V23.551c-1.597-1.473-3.377-1.964-5.035-1.964c-2.886,0-5.463,2.702-5.463,8.472
			C146.579,36.074,148.605,38.774,152.102,38.774z"/>
		<path fill="#109C81" d="M190.095,25.822c-0.186-2.702-1.534-4.42-4.789-4.42c-2.577,0-5.157,1.044-8.103,2.763l-3.192-5.955
			c3.866-2.333,8.226-3.99,13.012-3.99c7.798,0,12.095,4.42,12.095,13.751v17.434h-7.366l-0.677-3.13h-0.183
			c-2.577,2.27-5.463,3.867-8.9,3.867c-5.526,0-9.023-4.052-9.023-9.209C172.969,30.549,178.063,27.049,190.095,25.822z
			 M185.061,39.143c2.086,0,3.437-0.981,5.035-2.579v-5.34c-6.446,0.86-8.535,2.702-8.535,5.035
			C181.56,38.223,182.912,39.143,185.061,39.143z"/>
		<path fill="#109C81" d="M208.073,22.016h-4.174v-6.692l4.666-0.367l1.046-8.103h7.489v8.103h7.303v7.059h-7.303v12.216
			c0,3.437,1.534,4.849,3.929,4.849c0.98,0,2.086-0.307,2.883-0.613l1.414,6.567c-1.597,0.491-3.809,1.106-6.755,1.106
			c-7.549,0-10.498-4.727-10.498-11.786V22.016z"/>
		<path fill="#109C81" d="M245.637,25.822c-0.183-2.702-1.534-4.42-4.789-4.42c-2.577,0-5.154,1.044-8.103,2.763l-3.192-5.955
			c3.869-2.333,8.226-3.99,13.015-3.99c7.795,0,12.092,4.42,12.092,13.751v17.434h-7.366l-0.674-3.13h-0.186
			c-2.577,2.27-5.463,3.867-8.9,3.867c-5.523,0-9.023-4.052-9.023-9.209C228.511,30.549,233.605,27.049,245.637,25.822z
			 M240.602,39.143c2.089,0,3.44-0.981,5.035-2.579v-5.34c-6.446,0.86-8.532,2.702-8.532,5.035
			C237.105,38.223,238.454,39.143,240.602,39.143z"/>
		<path d="M267.606,34.784c3.132,0,5.463,2.456,5.463,5.709c0,3.193-2.331,5.649-5.463,5.649c-3.132,0-5.463-2.456-5.463-5.649
			C262.143,37.24,264.475,34.784,267.606,34.784z"/>
		<path d="M282.149,36.258c2.763,2.087,5.28,3.192,7.857,3.192c2.703,0,3.869-0.981,3.869-2.579c0-2.026-3.069-2.946-6.2-4.174
			c-3.683-1.411-8.04-3.929-8.04-8.962c0-5.647,4.603-9.515,11.663-9.515c4.663,0,8.1,1.903,10.74,3.867l-4.052,5.402
			c-2.209-1.596-4.297-2.579-6.446-2.579c-2.331,0-3.437,0.86-3.437,2.394c0,1.964,2.826,2.702,5.955,3.867
			c3.869,1.413,8.226,3.56,8.226,9.148c0,5.525-4.357,9.822-12.523,9.822c-3.989,0-8.592-1.72-11.663-4.236L282.149,36.258z"/>
		<path d="M305.47,14.957h8.963l2.946,14.118c0.491,3.009,0.86,5.955,1.352,9.025h0.246c0.551-3.07,1.043-6.139,1.78-9.025
			l3.377-14.118h7.795l3.437,14.118c0.737,3.009,1.289,5.955,1.903,9.025h0.246c0.554-3.07,0.86-6.016,1.411-9.025l2.886-14.118
			h8.349l-7.306,30.447h-10.558l-2.763-12.155c-0.614-2.823-1.103-5.647-1.657-8.9h-0.246c-0.551,3.253-0.983,6.077-1.534,8.9
			l-2.7,12.155h-10.315L305.47,14.957z"/>
		<path d="M354.875,5.748c0-2.762,2.212-4.664,5.22-4.664c3.069,0,5.217,1.903,5.217,4.664c0,2.763-2.149,4.727-5.217,4.727
			C357.086,10.476,354.875,8.511,354.875,5.748z M355.612,14.957h9.023v30.447h-9.023V14.957z"/>
		<path d="M373.901,36.258c2.763,2.087,5.28,3.192,7.857,3.192c2.703,0,3.869-0.981,3.869-2.579c0-2.026-3.069-2.946-6.2-4.174
			c-3.683-1.411-8.04-3.929-8.04-8.962c0-5.647,4.603-9.515,11.663-9.515c4.663,0,8.1,1.903,10.74,3.867l-4.052,5.402
			c-2.209-1.596-4.297-2.579-6.446-2.579c-2.331,0-3.437,0.86-3.437,2.394c0,1.964,2.826,2.702,5.955,3.867
			c3.869,1.413,8.226,3.56,8.226,9.148c0,5.525-4.357,9.822-12.523,9.822c-3.989,0-8.592-1.72-11.663-4.236L373.901,36.258z"/>
		<path d="M401.091,36.258c2.763,2.087,5.28,3.192,7.857,3.192c2.7,0,3.866-0.981,3.866-2.579c0-2.026-3.069-2.946-6.2-4.174
			c-3.683-1.411-8.04-3.929-8.04-8.962c0-5.647,4.603-9.515,11.663-9.515c4.666,0,8.103,1.903,10.743,3.867l-4.052,5.402
			c-2.212-1.596-4.297-2.579-6.446-2.579c-2.331,0-3.437,0.86-3.437,2.394c0,1.964,2.823,2.702,5.955,3.867
			c3.866,1.413,8.226,3.56,8.226,9.148c0,5.525-4.36,9.822-12.523,9.822c-3.992,0-8.595-1.72-11.663-4.236L401.091,36.258z"/>
	</g>
	<g>
		<path fill="#109C81" d="M447.073,13.879c6.301-4.497,15.125-3.937,20.777,1.713c5.651,5.651,6.21,14.476,1.714,20.777l6.016,6.016
			c3.507-4.348,5.42-9.715,5.42-15.379c0-6.561-2.555-12.729-7.195-17.369c-4.639-4.64-10.808-7.195-17.369-7.195
			c-5.665,0-11.031,1.913-15.379,5.42L447.073,13.879z"/>
		<path d="M465.558,40.304c-6.281,4.289-14.937,3.658-20.508-1.911c-5.569-5.57-6.2-14.227-1.911-20.508l-6.018-6.018
			c-3.373,4.301-5.221,9.56-5.221,15.111c0,6.561,2.555,12.729,7.195,17.369c4.639,4.64,10.808,7.195,17.369,7.195
			c5.551,0,10.81-1.847,15.111-5.22L465.558,40.304z"/>
	</g>
</g>
</svg>
