<?xml version="1.0" encoding="utf-8"?>
<!-- Generator: Adobe Illustrator 17.1.0, SVG Export Plug-In . SVG Version: 6.00 Build 0)  -->
<!DOCTYPE svg PUBLIC "-//W3C//DTD SVG 1.1//EN" "http://www.w3.org/Graphics/SVG/1.1/DTD/svg11.dtd">
<svg version="1.1" id="Layer_1" xmlns="http://www.w3.org/2000/svg" xmlns:xlink="http://www.w3.org/1999/xlink" x="0px" y="0px"
	 viewBox="0 0 52 52" enable-background="new 0 0 52 52" xml:space="preserve">
<g>
	<path opacity="0.5" fill="#FFFFFF" d="M16.5,12.6c6.4-4.6,15.4-4,21.2,1.7c5.8,5.8,6.3,14.7,1.7,21.2l6.1,6.1
		C49.1,37.2,51,31.8,51,26c0-6.7-2.6-13-7.3-17.7C38.9,3.6,32.7,1,26,1c-5.8,0-11.2,1.9-15.7,5.5L16.5,12.6z"/>
	<path fill="#FFFFFF" d="M35.3,39.6c-6.4,4.4-15.2,3.7-20.9-1.9c-5.7-5.7-6.3-14.5-1.9-20.9l-6.1-6.1C2.9,15,1,20.3,1,26
		c0,6.7,2.6,13,7.3,17.7c4.7,4.7,11,7.3,17.7,7.3c5.7,0,11-1.9,15.4-5.3L35.3,39.6z"/>
</g>
</svg>
