<?xml version="1.0" encoding="utf-8"?>
<!-- Generator: Adobe Illustrator 17.1.0, SVG Export Plug-In . SVG Version: 6.00 Build 0)  -->
<!DOCTYPE svg PUBLIC "-//W3C//DTD SVG 1.1//EN" "http://www.w3.org/Graphics/SVG/1.1/DTD/svg11.dtd">
<svg version="1.1" id="Layer_1" xmlns="http://www.w3.org/2000/svg" xmlns:xlink="http://www.w3.org/1999/xlink" x="0px" y="0px"
	 viewBox="0 221 960 118" enable-background="new 0 221 960 118" xml:space="preserve">
<g>
	<g>
		<path fill="#009688" d="M31.6,250.8c15.3,0,29.5,11.6,29.5,31.8c0,20.2-14.2,31.8-29.5,31.8C16.2,314.4,2,302.7,2,282.6
			S16.2,250.8,31.6,250.8z M31.6,299.8c7.3,0,11.1-6.7,11.1-17.2c0-10.5-3.8-17.2-11.1-17.2c-7.5,0-11.1,6.7-11.1,17.2
			C20.5,293.1,24.1,299.8,31.6,299.8z"/>
		<path fill="#009688" d="M91.4,317.7v17.7h-18v-83.1h14.7l1.2,6h0.5c4.8-4.3,10.9-7.5,17.2-7.5c14.7,0,23.7,12.1,23.7,30.8
			c0,20.8-12.5,32.8-25.6,32.8c-5.3,0-10.2-2.3-14.4-6.4L91.4,317.7z M101,299.7c6.2,0,11.3-5.4,11.3-17.8
			c0-10.9-3.3-16.4-10.5-16.4c-3.7,0-6.8,1.7-10.4,5.5v24.8C94.5,298.7,98,299.7,101,299.7z"/>
		<path fill="#009688" d="M168.5,250.8c17.2,0,25.8,12.6,25.8,29.1c0,3.2-0.4,6.1-0.7,7.6h-36.3c1.6,9.2,7.7,13.2,15.8,13.2
			c4.5,0,8.7-1.3,13.1-4l6,10.9c-6.2,4.3-14.3,6.8-21.5,6.8c-17.4,0-30.7-11.7-30.7-31.8C139.9,262.9,153.9,250.8,168.5,250.8z
			 M179,276.3c0-7-2.9-11.9-10.2-11.9c-5.6,0-10.5,3.8-11.7,11.9H179z"/>
		<path fill="#009688" d="M206.7,252.2h14.7l1.2,7.7h0.5c5.1-4.9,11.2-9.2,19.4-9.2c13.2,0,18.8,9.3,18.8,24.5v37.7h-18v-35.3
			c0-8.8-2.3-11.5-7.5-11.5c-4.5,0-7.3,2.1-11.2,5.9v41h-18L206.7,252.2L206.7,252.2z"/>
		<path fill="#009688" d="M298.7,250.8c6.7,0,10.8,2.4,14.9,6.4l-0.7-9.3v-20.7h18v85.7h-14.7l-1.2-6h-0.5
			c-4.3,4.3-10.3,7.5-16.1,7.5c-15,0-24.8-12-24.8-31.8C273.5,262.8,285.8,250.8,298.7,250.8z M302.9,299.7c3.9,0,7-1.5,9.9-5.5
			v-24.8c-3.2-2.9-6.7-3.9-10-3.9c-5.7,0-10.9,5.4-10.9,16.9C291.9,294.3,296,299.7,302.9,299.7z"/>
		<path fill="#009688" d="M378.6,273.9c-0.4-5.4-3.1-8.8-9.5-8.8c-5.1,0-10.3,2.1-16.1,5.5l-6.4-11.9c7.7-4.6,16.4-7.9,25.9-7.9
			c15.5,0,24.1,8.8,24.1,27.4v34.7h-14.7l-1.3-6.2h-0.4c-5.1,4.5-10.9,7.7-17.7,7.7c-11,0-18-8.1-18-18.3
			C344.5,283.3,354.6,276.3,378.6,273.9z M368.6,300.4c4.2,0,6.8-2,10-5.1v-10.6c-12.8,1.7-17,5.4-17,10
			C361.6,298.6,364.3,300.4,368.6,300.4z"/>
		<path fill="#009688" d="M414.4,266.3h-8.3V253l9.3-0.7l2.1-16.1h14.9v16.1h14.5v14.1h-14.5v24.3c0,6.8,3.1,9.7,7.8,9.7
			c2,0,4.2-0.6,5.7-1.2l2.8,13.1c-3.2,1-7.6,2.2-13.5,2.2c-15,0-20.9-9.4-20.9-23.5V266.3z"/>
		<path fill="#009688" d="M489.2,273.9c-0.4-5.4-3.1-8.8-9.5-8.8c-5.1,0-10.3,2.1-16.1,5.5l-6.4-11.9c7.7-4.6,16.4-7.9,25.9-7.9
			c15.5,0,24.1,8.8,24.1,27.4v34.7h-14.7l-1.3-6.2h-0.4c-5.1,4.5-10.9,7.7-17.7,7.7c-11,0-18-8.1-18-18.3
			C455.1,283.3,465.3,276.3,489.2,273.9z M479.2,300.4c4.2,0,6.9-2,10-5.1v-10.6c-12.8,1.7-17,5.4-17,10
			C472.2,298.6,474.9,300.4,479.2,300.4z"/>
		<path d="M533,291.7c6.2,0,10.9,4.9,10.9,11.4c0,6.4-4.6,11.3-10.9,11.3c-6.2,0-10.9-4.9-10.9-11.3
			C522.1,296.6,526.8,291.7,533,291.7z"/>
		<path d="M562,294.7c5.5,4.2,10.5,6.4,15.6,6.4c5.4,0,7.7-2,7.7-5.1c0-4-6.1-5.9-12.3-8.3c-7.3-2.8-16-7.8-16-17.8
			c0-11.2,9.2-19,23.2-19c9.3,0,16.1,3.8,21.4,7.7l-8.1,10.8c-4.4-3.2-8.6-5.1-12.8-5.1c-4.6,0-6.8,1.7-6.8,4.8
			c0,3.9,5.6,5.4,11.9,7.7c7.7,2.8,16.4,7.1,16.4,18.2c0,11-8.7,19.6-24.9,19.6c-7.9,0-17.1-3.4-23.2-8.4L562,294.7z"/>
		<path d="M608.4,252.2h17.9l5.9,28.1c1,6,1.7,11.9,2.7,18h0.5c1.1-6.1,2.1-12.2,3.5-18l6.7-28.1h15.5l6.8,28.1
			c1.5,6,2.6,11.9,3.8,18h0.5c1.1-6.1,1.7-12,2.8-18l5.7-28.1h16.6l-14.6,60.6h-21l-5.5-24.2c-1.2-5.6-2.2-11.2-3.3-17.7h-0.5
			c-1.1,6.5-2,12.1-3.1,17.7l-5.4,24.2h-20.5L608.4,252.2z"/>
		<path d="M706.8,233.9c0-5.5,4.4-9.3,10.4-9.3c6.1,0,10.4,3.8,10.4,9.3c0,5.5-4.3,9.4-10.4,9.4
			C711.2,243.3,706.8,239.4,706.8,233.9z M708.3,252.2h18v60.6h-18V252.2z"/>
		<path d="M744.7,294.7c5.5,4.2,10.5,6.4,15.6,6.4c5.4,0,7.7-2,7.7-5.1c0-4-6.1-5.9-12.3-8.3c-7.3-2.8-16-7.8-16-17.8
			c0-11.2,9.2-19,23.2-19c9.3,0,16.1,3.8,21.4,7.7l-8.1,10.8c-4.4-3.2-8.6-5.1-12.8-5.1c-4.6,0-6.8,1.7-6.8,4.8
			c0,3.9,5.6,5.4,11.9,7.7c7.7,2.8,16.4,7.1,16.4,18.2c0,11-8.7,19.6-24.9,19.6c-7.9,0-17.1-3.4-23.2-8.4L744.7,294.7z"/>
		<path d="M798.9,294.7c5.5,4.2,10.5,6.4,15.6,6.4c5.4,0,7.7-2,7.7-5.1c0-4-6.1-5.9-12.3-8.3c-7.3-2.8-16-7.8-16-17.8
			c0-11.2,9.2-19,23.2-19c9.3,0,16.1,3.8,21.4,7.7l-8.1,10.8c-4.4-3.2-8.6-5.1-12.8-5.1c-4.6,0-6.8,1.7-6.8,4.8
			c0,3.9,5.6,5.4,11.9,7.7c7.7,2.8,16.4,7.1,16.4,18.2c0,11-8.7,19.6-24.9,19.6c-8,0-17.1-3.4-23.2-8.4L798.9,294.7z"/>
	</g>
	<g>
		<path fill="#009688" d="M890.4,250.1c12.5-9,30.1-7.8,41.4,3.4c11.3,11.3,12.4,28.8,3.4,41.4l12,12c7-8.7,10.8-19.3,10.8-30.6
			c0-13.1-5.1-25.4-14.3-34.6c-9.2-9.2-21.5-14.3-34.6-14.3c-11.3,0-22,3.8-30.6,10.8L890.4,250.1z"/>
		<path d="M927.3,302.7c-12.5,8.5-29.8,7.3-40.8-3.8c-11.1-11.1-12.3-28.3-3.8-40.8l-12-12c-6.7,8.6-10.4,19-10.4,30.1
			c0,13.1,5.1,25.4,14.3,34.6c9.2,9.2,21.5,14.3,34.6,14.3c11.1,0,21.5-3.7,30.1-10.4L927.3,302.7z"/>
	</g>
</g>
</svg>
