<?xml version="1.0" encoding="utf-8"?>
<!-- Generator: Adobe Illustrator 17.1.0, SVG Export Plug-In . SVG Version: 6.00 Build 0)  -->
<!DOCTYPE svg PUBLIC "-//W3C//DTD SVG 1.1//EN" "http://www.w3.org/Graphics/SVG/1.1/DTD/svg11.dtd">
<svg version="1.1" id="Layer_1" xmlns="http://www.w3.org/2000/svg" xmlns:xlink="http://www.w3.org/1999/xlink" x="0px" y="0px"
	 viewBox="74 -16 901 590" enable-background="new 74 -16 901 590" xml:space="preserve">
<path fill="#117B74" d="M680,557c-2,0-3.7-0.8-5.1-2.3c-1.2-1.2-2.5-2.4-3.7-3.6c-0.1-0.1-0.2-0.2-0.5-0.4c-0.2,0.1-0.6,0.4-1,0.5
	c-1.2,0.7-2.9,1.5-4.8,1.5c-1.4,0-2.7-0.5-3.9-1.5c-4.2-3.7-1.1-7.5,0-8.7c0.2-0.4,0.7-1,0.8-1.2c0.7-3.3,0.8-6.2-1.2-8.6
	c-0.6-0.6-1.3-1.5-1.7-2.7c-2.6-8-9.3-12.3-16-16.7l-0.1-0.1c-1.7-1.1-3.4-2.3-5.1-3.4c-2.4-1.7-5.6-5.6-1.2-12.7
	c2.1-3.3,4.9-6.7,8.7-10.1c1.8-1.7,1.5-2.6,0.5-6.2l-0.1-0.2c-0.2-0.8-0.5-1.1-0.5-1.1l0,0c0,0-0.1,0-0.5,0c-0.4,0-0.7,0-1.1,0
	c-0.8,0-1.7,0.1-2.5,0c-1.7-0.1-3.2-0.2-4.9-0.5c-4.2-0.4-8.1-0.7-12.2-0.7c-1.7,0-3.2,0.1-4.9,0.2c-0.5,0-0.8,0-1.3,0
	c-7.3,0-14.6-5.1-19.2-13.4c-3.8-6.9-9.4-12.9-16.3-17.9c-1.8-1.3-3.6-2.1-5.3-2.5c-9.3-1.9-13.4-8.3-11.8-17.6
	c1.1-5.8,2.5-11.6,3.8-17.2l0.2-1.2c1.4-6.1,2-12.3,1.7-19.2c-0.1-2.5-0.7-5.7-2.6-7c-1.5-1.1-4.2-1.2-7.6-0.1
	c-1.4,0.5-2.7,1-4.2,1.5c-2.9,1.2-6.2,2.6-10.2,2.7c-0.6,0-1.1,0.2-1.3,0.6c-0.4,0.7-0.5,1.7,0,2.5c2.9,5.9,1,11-5.5,14.9
	c-5.3,3.2-9.5,6.4-11.9,11.7c-2.1,4.6-6.5,7.5-12.3,7.8c-4.3,0.4-7.1,1.8-8.9,4.4c-1.1,1.5-1.5,3-1.3,3.9c0.2,0.8,1,1.7,2.1,2.4
	c8.9,5.2,13.2,16.5,9.1,24.9c-2.9,6.1-7.7,14.6-17.3,18.2c-3.2,1.2-4.4,2.7-4.8,6.4c-0.1,1.1-0.2,2.1-0.2,3.3
	c-0.2,3-0.5,5.9-1.3,8.9c-2.3,8.2-5.9,11.1-14.1,11h-0.5c-2.7,0-5.6,0.4-8.6,1.2c-5.3,1.4-7.1,3.9-6.1,8.8c0.7,3.3,1.3,7-0.8,9.5
	c-1.5,1.8-3.9,1.9-5.6,1.9c-1.1,0-2.3-0.1-3.9-0.4c-0.7-0.1-1.9,0-3.1,0c-0.8,0-1.5,0.1-2.4,0.1c-2.7,0-6.5-0.5-9.1-4.5
	c-0.6,0.1-1.2,0.2-1.7,0.4c-5.1,1.9-9.8,0.5-13.4-3.9l-0.6-0.7c-1.1-1.3-2.3-2.7-3.1-4.3c-1.4-2.5-2.9-2.9-3.8-2.9
	c-0.7,0-1.5,0.2-2.5,0.6c-1.4,0.6-2.9,0.8-4.2,0.8c-3.1,0-5.7-1.3-8-2.5c-0.5-0.2-1-0.5-1.4-0.7c-2.4,3-6.2,6.4-12,6.4
	c-0.7,0-1.5,0-2.4-0.1c-0.1,0.1-0.5,0.6-0.8,1.3c-0.2,0.5-0.6,1.1-1,1.5c-4.2,5.9-12.9,10.2-21,10.2c-3,0-5.7-0.6-8-1.7
	c-1.1-0.5-1.9-0.7-2.6-0.7s-1.5,0.1-2.7,1.4c-9.3,9.5-20.5,10.2-33.4,10.2c-2.4,0-5.3-1.4-6.9-3.4c-1.2-1.4-2.5-2.9-3.8-4.3
	c-3.2-3.4-6.4-6.9-8.4-11.7c-1-2.1-2.1-4.4-3.9-6.2c-1-0.8-3.9-4-3.8-7.5c0.1-2.9-1.3-5.1-3.1-7.6c-0.8-1.2-1.7-2.5-2.4-3.9
	c-2.1-4.2-4.5-4.8-6.8-4.8c-1.9,0-4.3,0.6-7.3,1.3c-1,0.2-2,0-2.7-0.6c-0.7-0.6-1.1-1.7-1-2.6c0.1-1.1,0-2.1-0.2-3.4
	c-0.5-3.4-1.2-8.1,4.3-12c-0.1-0.6-0.6-1.3-1.5-1.8l-0.5-0.2c-2-1-3.7-1.7-5.6-1.9c-5.1-0.5-8.7-2.1-10.9-5.1
	c-1.9-2.7-2.3-6.4-1.1-10.9c0.4-1.2,0.6-2.4,0.8-3.6c1.4-6.2,3-12.6,8.6-17.6c0.7-0.7,1-2.3,0.5-3.9c-1.9-6.7-4.6-12.2-8.2-16.7
	c-4.5-5.6-4.4-11,0.6-16.7c1.7-1.9,2.5-3.4,2.4-4.5c-0.1-1.1-1.2-2.5-3.2-4c-10.1-8-22.4-11.4-36.7-10c-2,0.2-4,0.5-5.9,0.7h0
	c-0.8,0.1-1.8,0.2-2.6,0.4c-4.9,0.6-9.8,1.5-11.8,5c-4.6,8.8-12.5,9.6-19.4,10.2h-0.4c-5.1,0.5-8.8,2-11.6,5.1
	c-3.3,3.6-7.5,8.4-10.6,14.1c0.1,0.1,0.4,0.1,0.4,0.2c0.8,0.4,1.9,0.8,3,1.8c1,1,1.2,2.6,0.4,3.7c-1.3,1.9-2,3.7-1.8,5.7h4.2
	c1.3,0,2.4,0.8,2.9,2c2,5.8,0.1,10.7-5.5,13.5c-5.5,2.9-9.5,6.4-12.6,11.4c-4.3,6.7-11.3,10.1-20.2,9.8c-2-0.1-4.4-0.1-7-0.1
	c-2.1,0-4.4,0-6.5,0c-1.3,0-2.6,0-3.9,0c-2.4,0-4.6-0.2-6.2-2.1c-0.7-0.8-1.3-2.3-0.7-4.5c1-3.6-0.2-6.1-3.9-8.6
	c-1.3-0.8-1.7-2.5-1.1-3.8c4.8-9.5,12.7-10.7,18.9-10.7h1c3.4,0,6.8-0.1,10-1.8c-4.4-5.8-1.3-12.1,1.1-16.6c0.2-0.5,0.6-1.1,0.8-1.5
	c0.4-0.8,0.8-1.7,1.3-2.4c0.8-1.5,1.5-2.9,2.1-4.4c1.5-4.3,0.4-7.8-3.6-10.6c-6.4-4.4-9.6-9.7-10.2-17.1c-0.7-8.8,3.9-15.3,8-21
	l0.4-0.5c1.7-2.3,3.9-3.1,5.7-3.7c0.8-0.4,1.7-0.6,2.3-1c2.5-1.8,2.9-2.4,3-2.6l0,0c0,0-0.1-0.6-1.8-2.5c-0.6-0.6-1.4-1.2-2.4-1.8
	c-0.5-0.4-1.1-0.6-1.4-1c-1.2-0.8-1.5-2.4-1-3.7c2.9-5.7,7-7.8,10.7-10l0.2-0.1c6.1-3.2,10.9-7.5,14.2-12.6c2.6-4,5.6-6.7,9.1-8.1
	c7.7-3.1,14.1-8.8,20.2-14.2l0.1-0.1c1.8-1.5,3.6-3.2,5.3-4.8l0.2-0.1c1-0.8,2.7-2.4,2.9-3l0,0c0,0-0.1-0.6-1.7-1.7
	c-1.2-0.8-1.9-2-2-3.3c-0.2-1.7,0.5-3.4,2.1-5.5c5.1-6.3,4.4-12.9,1.9-20.9c-1.4-4.5-1.2-8.9,1-12.7c2.3-4.2,6.7-7.4,12.2-8.8
	c11.8-3.1,23.6-7.2,32.3-17.2c1.4-1.7,2.3-3.7,2.7-5c2.9-9.4,8.8-16.4,17.6-21c3.1-1.7,5.3-4,7.6-7.8c3.1-5.3,7-11.4,13.2-15.7
	c1.8-1.3,3.3-3,4.9-4.8c0.4-0.4,0.7-0.8,1.1-1.2c1.9-2.1,2.4-3.6,1.8-6.2c-0.6-2.7-1-5.6,0.7-7.8c1.8-2.4,5-2.6,7.8-2.7
	c1.7,0,2.7-0.5,3.9-1.5c0.5-0.5,1-1.1,1.5-1.5c1.7-1.8,3.6-3.8,6.1-4.8c1.9-0.7,2.7-1.5,2-4.3c-0.2-0.8-1.2-2-2.7-2.9
	c-1.1-0.5-2.3-0.7-2.9-0.4c-4.8,2.3-9.6,2.5-14.5,2.5h-1.1c-1.3,0-2.6,0-3.8,0c-0.2,0-0.5,0-0.7,0c-1.5,0-3.9-0.2-6.1-2.1
	c-0.5-0.5-0.8-1.1-1-1.8c-0.5-3.2,1.4-5.2,2.9-6.7l0.4-0.4c1.1-1.2,2.3-2,3.4-2.9c2.4-1.8,4-3,4.3-5.8c0.2-3.3,3.3-4.3,5.2-4.8
	c2.3-0.7,2.6-1,2.7-1.5c0.2-1.2,1.3-2.1,2.5-2.3c1.3-0.1,1.7-0.5,1.7-0.5c0.2-0.5-0.2-2.1-0.5-3c-0.2-0.7-0.4-1.3-0.5-1.9
	c-0.1-0.5-0.2-1-0.4-1.5c-0.6-2.7-1.5-6.8,3.1-9.8c1.2-0.8,2.5-1.2,3.8-1.2c3.1,0,5.3,2.4,6.7,3.8l0.2,0.2c0.7,0.7,1.2,0.8,1.5,0.8
	c0.7,0,1.8-0.5,2.7-1c4.4-2.1,8.9-1.9,13.1,0.7c1.7,1.1,2.7,1.5,3.6,1.5c0.5,0,0.8-0.1,1.3-0.4c1-0.6,1.9-1,2.9-1
	c1.5,0,2.6,0.8,3.2,1.3c0.1,0.1,0.2,0.2,0.4,0.2c1.8,1.2,2.4,3.1,1.8,5.5c0,0.1,0,0.2-0.1,0.2c-0.1,1.4-1.1,2.5-1.7,3.1
	c-0.1,0.1-0.2,0.4-0.4,0.5c-0.2,0.5-0.6,1-1,1.4c-1,1.4-1.1,1.7-1.1,2.1c0.2,0,0.6,0,0.7,0c0.7,0,1.4,0,2.3,0.2
	c1.9,0.5,4.4,1.9,5.2,6.3c0,0.2,0.1,0.4,0.2,0.6c6.2-4.5,12.7-6.1,19.7-4.8c0.7,0.1,1.4,0.2,2.1,0.2c4,0,7.4-2.3,11.3-4.9
	c0.5-0.4,1-0.7,1.4-1.1c-0.8-1.4-2.4-4.4,0.4-7.8c0.5-0.7,1.3-1.1,2.1-1.2h0.2c0.7,0,1.5,0.2,2,0.8c0.8,0.7,2.1,0.8,3.8,0.5
	c0.7-0.2,1-1.1,1.3-3.7v-0.2c0.5-4.3,3.6-5.1,5.5-5.3c-1-1-2.1-2.1-2.9-4c-0.5-1.4,0.2-3,1.7-3.7c5-2.1,9.8-5.2,14.5-8.2
	c3.7-2.3,7.4-4.8,11.4-6.8c1.2-0.6,2.9-0.2,3.7,0.8c2.6,3.4,3.4,6.4,2.9,9.1c-0.8,3.1-3.4,4.9-6.2,6.3c2.1,1.1,4.6,1.2,6.8,1.3
	c1.1,0,2.3,0.1,3.3,0.2c1.5,0.1,3,0.2,4.3,0.2c3,0,6.2-0.6,8.8-4.6c2.5-3.8,7.4-6.5,14.6-8c1.5-0.4,2.9-0.5,4-0.5
	c4.5,0,7.7,2,10.4,6.7c1.8,3.2,3.2,3.8,5.1,3.8c1,0,2-0.1,3.3-0.5c9.3-2.1,18.1-6.3,26.5-10.3l1.8-0.8c1.5-0.7,3-2.3,3.9-4.4
	c1.7-3.3,4.3-5,7.8-5c0.8,0,1.8,0.1,3,0.4c7.7,1.4,15.9,3.8,22.3,11.1c3.3,3.8,6.7,4.8,10.7,2.9c3.1-1.4,6.1-1.5,10-0.4
	c2,0.6,4,0.5,5.9-0.4c-0.2-0.1-0.5-0.2-0.7-0.5c-0.7-0.4-1.4-0.8-2.3-1.5c-1.2-1.1-1.3-2.9-0.4-4.2c1.9-2.3,4.4-3.4,6.7-4.4
	c1.5-0.7,2.9-1.3,3.9-2.1c1.5-1.3,3.6-1.7,5.6-1.2c2.7,0.7,5.2,3.2,6.4,6.3c0.4,0.8,0.6,1.7,1,2.4c1.7-1.3,1.9-2.4,1.2-4.5
	c-0.7-1.9-0.6-3.6,0.1-4.9c1-1.5,2.6-2.1,3.9-2.4c-0.8-1.7-1.2-1.7-2.4-1.7c-0.8,0-1.9,0.1-3.3,0.2c-2.4,0.2-4.6,1-6.9,1.8
	c-4.9,1.7-8.1,2.5-10.8,2.5c-4.9,0-7.7-2.7-13.1-8.7c-3.6-4-3.9-8.3-1-13.5c1.2-2.3,2.9-4,4.4-5.8c2.3-2.6,4.2-4.9,4.9-8
	c0.8-3.7,4.4-4.2,6.5-4.5c0.5-0.1,1-0.1,1.3-0.2c2.5-0.6,4.9-1.5,7.5-2.5c0.7-0.2,1.4-0.6,2.1-0.8c0-0.1,0.1-0.2,0.1-0.4
	c0.1-0.2,0.4-0.8,0.4-1c-0.2-1,0-1.8,0.6-2.5s1.4-1.1,2.3-1.1h0.2c7.6,0.2,10.6,0.6,12.3,4.8c1.1-1.3,2.6-2.4,5.2-2.4
	c3.6,0,6.1,1.9,6.4,5c0.1,0.6,0.2,1.5,0.7,1.9c0.5,0.4,1.7,0.5,3.3,0.2c0.1,0,0.2,0,0.5,0c1.2,0,2.1,0.7,2.6,1.7
	c1.9,4.2,1.1,7.7,0.4,10.7c-0.2,1.2-0.5,2.3-0.6,3.2c-0.1,2,1.2,4.5,3.2,6.3c1.7,1.4,3.6,2.1,5.1,1.8c0.1,0,0.2-0.1,0.4-0.1
	c0-0.1,0-0.6-0.2-1.2c-0.2-0.6-1.2-1.4-2.1-2.3c-0.6-0.5-1.1-1-1.5-1.4c-0.8-0.8-1.1-1.9-0.7-3c0.8-2.5,2.1-4,3.9-4.9
	c0.7-0.2,1.4-0.5,2.3-0.5c1.9,0,3.8,0.8,5.3,1.7c1.1,0.6,2.1,1.3,3.1,1.9c2.1,1.4,3.9,2.7,6.5,2.5h0.1c1,0,1.8,0.5,2.4,1.2
	c0.6,0.8,0.7,1.9,0.4,2.9c-1.7,4.4-1.2,7.1,1.4,9.6c3.7,3.2,7,3.7,11,1.9c9.5-4.3,19.4-4.8,29-5.2c2.1-0.1,4.2-0.2,6.3-0.4
	c4.2-0.2,7.7,1.5,9.8,5c2.7,4.6,6.9,7.4,13.4,8.6c3.8,0.7,5.9,3.4,7.7,5.6c1.1,1.3,2.1,2.6,3.1,2.9l0.7,0.2c3.9,1,8,2,10.6,7
	c3.3,6.8,7.3,10.9,12.5,12.8c2.3,0.8,4.4,2.7,6.1,5.1c1,1.3,2.3,2,3.8,2c0.8,0,1.7-0.2,2.5-0.5c1.7-0.7,3.3-1.1,4.9-1.1
	c3.7,0,6.3,1.9,8.2,3.7c0.5,0.5,1,1,1.4,1.3c1.9,1.8,3.3,3.2,5.6,3.3c2.9,0.2,6.9,4,6.5,7.1c-0.2,3.3,0.6,6.5,1.4,10.1
	c0.4,1.2,0.7,2.5,1,3.8c0.6,2.7,0.2,5-1,6.9c-1.3,2-3.6,3.2-6.7,3.8c-3.7,0.6-6.3,2.6-9.5,6.9l-1.7,2.4c-4.8,6.8-9.8,13.9-12.3,21.6
	l-0.2,1c-3,9.7-6.2,19.6-1.8,29.3c2.4,5.1,1,9.2-0.4,13.3l-0.4,0.8c-0.7,2.1-0.6,2.3-0.2,2.5c0.1,0.1,0.1,0.1,0.2,0.1
	c0.4,0,0.8-0.1,1.4-0.4c0.4-0.1,0.7-0.2,1.2-0.4c1.9-0.5,3.3-0.7,4.8-0.7c2.9,0,5,1.1,8.4,3.7c0.7-0.7,1.8-1.4,3.2-1.4
	c0.5,0,1.1,0.1,1.7,0.2c3.2,1.1,6.5,1.2,9.7,1.2h1.4c2.5,0,5.1,0,7.8,0.4c5.2,0.7,10.1,2.4,14.7,4c3.4,1.2,7.1,2.5,10.8,3.2
	c7.3,1.5,12.1,6.4,14.7,15.2c0.4,1.2-0.1,2.5-1.1,3.2c-0.5,0.4-1.1,0.7-1.7,1.1c-1.1,0.6-2,1.3-2.6,1.9c-0.5,0.6-0.8,1.2-0.7,1.7
	c0,0.4,0.2,0.6,0.5,1c1.8,1.4,3.7,2.7,5.7,4c1.8,1.2,3.6,2.4,5.2,3.7c0.5,0.4,0.8,0.5,1.1,0.5c0.4,0,0.7-0.1,1.4-0.4
	c1.5-0.6,3.1-0.8,4.8-0.8c4.5,0,8.2,2.5,10.6,4.3c2.3,1.9,4.5,3.9,6.5,5.8c1.8,1.5,3.4,3.2,5.2,4.8c2.9,2.4,5.8,2.6,9.8,0.8l1.5-0.7
	c2.1-1,4.4-2,6.3-3.2c3.9-2.5,5.5-5.2,5.1-8.9c-0.2-2.6,0.4-4.6,1.7-6.2c1.4-1.5,3.6-2.4,6.4-2.4c7.4,0,8.1-0.5,10.8-8
	c0.1-0.4,0.2-0.8,0.5-1.2c0.6-1.7,1.2-3.4,2.1-5.1c1.8-3.1,4.5-5.1,7.5-5.6c3.1-0.5,6.4,0.6,9.4,3.1c1.5,1.3,2.7,3,3.8,4.4
	c1.8,2.3,3.2,4.3,5.7,5.2c3.4,1.3,3.7,5.9,2.3,10c-1.2,3.3-1,6.8-0.8,10.7v0.7c0.2,5.9,0,13.8-4,21c-0.6,1.1-0.8,2.1-0.7,3.6
	c0,0.6,0.1,1.2,0.2,1.7c0.6,4.4,1.3,10.3-5.1,14.2c-0.1,0-0.1,0.1-0.1,0.1s0,0.5,1.2,2.4l0.1,0.2c2.7,4.5,0.2,7.7-0.5,8.8
	c-2.4,3-3.6,4.6-3.7,5.8c-0.1,1.2,0.8,2.7,2.5,5.6c1.9-0.4,3.4-0.6,4.9-0.6c4.5,0,7.3,1.9,9.7,6.5c4.2,8.3,1.8,19-3.2,23
	c-1.5,1.3-3.4,1.9-5.8,1.9c-1.2,0-2.4-0.1-3.4-0.4c-0.4,0-0.7-0.1-1.2-0.1c-1.5-0.2-3-0.6-4.4-1c-1.7-0.5-3.1-1-4.5-1
	c-1.1,0-1.9,0.2-2.7,0.7c-1.9,1.2-4.4,0.7-6.9-1.3c-3.3-2.7-7.1-4.5-11.2-5.5c-0.8-0.2-3.1-0.7-4-2.7c-0.5-1-0.8-2.6,0.1-4.9
	c1-2.1,0.7-3.9-0.8-5.5c-1.3,1-2.9,1.4-4.6,1.4c-1.1,0-2.1-0.1-3-0.2c-1.2-0.2-2.5-0.4-3.3-0.1c-7.6,2-11.2,3.4-12,9.7
	c-0.2,2.1-1.4,4.4-3.6,6.8c-2.9,3.2-4,6.4-4,10.6c0,2.1-0.7,4.2-1.3,5.8c-0.6,1.8-1.2,3.4-1.1,5c0.2,3.7,2.1,6.5,4.3,10
	c0.5,0.7,1,1.4,1.3,2c2.1-1,4.2-1.4,6.1-1.4c6.4,0,10.3,5.2,12.7,9.2c0.1,0.1,0.1,0.1,0.2,0.2c0.2,0.1,0.4,0.4,0.6,0.5
	c0.7,0.7,1,1.5,0.8,2.5c-0.1,1-0.7,1.8-1.5,2.1c-0.2,0.1-0.5,0.4-0.8,0.7c-0.8,0.8-1.9,2-4,2.6c-3.8,1-5,3.9-6.5,8.6
	c-0.4,1.2-0.8,2.5-1.3,3.7c-0.2,0.7-0.2,1.4,0.1,2.3c0.8,1.9,3.3,3.8,6.2,4.9c0.4,0.1,0.6,0.2,1,0.4c2.6,0.8,7.1,2.3,7,8.4v0.2
	c0,4.5-0.1,11.5-6.9,13.6c-1.1,0.4-2.3,0.8-3.4,1.4c-2.3,1.1-5.1,2.5-8.2,2.5c-2.7,0-5.2-1.1-7.5-3.1c-0.8-0.7-1.2-1.9-0.8-3
	c1.7-5.6,1.7-5.6-3.3-8.3c-3.2-1.8-6.4-3.9-9.1-7.2c-3.7-4.8-4-9.4-1.2-13.5c0.2-0.4,0.4-0.5,0.4-0.6c-0.2-0.2-0.6-0.7-1-1.1
	c-0.2-0.2-0.5-0.5-0.7-0.8c-1.9-2.1-3.9-3.1-6.4-3.1c-1.9,0-4,0.6-6.2,1.1c-1.5,0.4-3.2,0.8-4.9,1.1c-4.5,0.6-11.3,1.9-16.4,5.3
	c-1.3,0.8-2.6,1.3-3.9,1.3c-2,0-3.3-1.1-4.2-1.7c-0.7-0.6-1.1-0.6-1.3-0.6s-0.7,0.4-1,0.6c-0.8,0.7-1.1,1.1-0.4,2.5
	c1.2,2.9,2.4,6.2,0.8,10.1c-0.5,1.1-1.5,1.8-2.7,1.8h-0.1c-3.9-0.2-7.7-1-11.5-1.7c-4.8-0.8-9.3-1.7-13.9-1.5c-0.1,0-0.4,0-0.5,0
	c-5.6,0-10.1-3.3-13.5-10.3c-1.4-2.6-2.6-5.2-5.1-6.4c-9.4-4.8-9.1-13.5-7.7-21.4c0.5-2.6,0.5-5.2,0.6-7.7c0-2,0.1-4,0.4-6.2
	c0.1-0.7,0-0.8,0-0.8l0,0c0,0-0.1-0.1-0.5-0.4c-0.4-0.1-0.6-0.2-0.8-0.2c-0.1,0-0.5,0-1.1,0.7c-0.7,0.8-1.3,1.8-2,2.7
	c-1.4,2.1-3,4.5-5.8,6.1c-1,0.5-2.1,0.5-3.1-0.1c-4.5-3.1-4.4-7.6-4.3-10.9c0-0.2,0-0.5,0-0.7c-1.3,0.1-2.9,0.7-4.4,1.3
	c-2.3,0.8-4.8,1.8-7.5,1.7c-0.1,0.1-0.1,0.2-0.2,0.4c0,0.1-0.1,0.2,0,0.6c1.2,2.6,1.3,5,0.5,7.1c-0.8,2.1-2.7,3.8-5.5,5
	c-0.7,0.2-1.1,0.6-1.2,0.8c-0.4,0.8,0.6,2.9,1.1,3.9c2,4.4,3.6,8.8,4.9,12.7c4.2,12.3,2.6,25.3-4.9,38.8
	c-3.7,6.7-8.9,15.2-16.7,21.7c-2.4,2-4.4,4.4-6.5,7c-2.5,3-5,5.9-8.1,8.4c-0.4,0.5,0.1,2.7,0.4,3.7c0.1,0.4,0.1,0.7,0.2,1
	c1.3,7.1,0.5,10.2-6.9,12.3c-0.5,0.1-1.1,0.4-1.5,0.5c-0.8,0.2-1.7,0.5-2.5,0.7c-2,0.7-3,1.4-3.1,1.9c-0.1,0.2-0.2,1.1,1.2,2.9
	l0.2,0.4c2,2.9,4.2,5.7,3.4,9.2c-0.5,2.4-2.3,4.3-5.3,6.1c0,0.1-0.1,0.5,0,1c0.2,3.6,3.1,8.4,4.5,9.1c0.6,0.2,1.3,0.4,2.1,0.5
	c1.2,0.1,2.6,0.4,4,1l0.7,0.4c2.3,1,5.3,2.4,6.1,6.3c0.7,4.2-1.5,8.2-5.3,9.7c-1.9,0.7-3.2,1.7-3.6,2.6c-0.5,1.2,0.1,2.7,0.6,3.9
	c2,4.3-0.1,8.1-3.3,9.7C683.9,556.1,682.1,557,680,557z"/>
</svg>
