<?xml version="1.0" encoding="utf-8"?>
<!-- Generator: Adobe Illustrator 17.1.0, SVG Export Plug-In . SVG Version: 6.00 Build 0)  -->
<!DOCTYPE svg PUBLIC "-//W3C//DTD SVG 1.1//EN" "http://www.w3.org/Graphics/SVG/1.1/DTD/svg11.dtd">
<svg version="1.1" id="Layer_1" xmlns="http://www.w3.org/2000/svg" xmlns:xlink="http://www.w3.org/1999/xlink" x="0px" y="0px"
	 viewBox="45.4 1.4 869.9 556.9" enable-background="new 45.4 1.4 869.9 556.9" xml:space="preserve">
<path fill="#117B74" d="M634.1,554.9c-2,0-3.7-0.8-5.1-2.3c-1.2-1.2-2.5-2.4-3.7-3.6c-0.1-0.1-0.2-0.2-0.5-0.4
	c-0.2,0.1-0.6,0.4-1,0.5c-1.2,0.7-2.9,1.5-4.8,1.5c-1.4,0-2.7-0.5-3.9-1.5c-4.2-3.7-1.1-7.5,0-8.7c0.2-0.4,0.7-1,0.8-1.2
	c0.7-3.3,0.8-6.2-1.2-8.6c-0.6-0.6-1.3-1.5-1.7-2.7c-2.6-8-9.2-12.2-15.9-16.6l-0.1-0.1c-1.7-1.1-3.4-2.3-5.1-3.4
	c-2.4-1.7-5.6-5.6-1.2-12.6c2.1-3.3,4.9-6.7,8.7-10c1.8-1.7,1.5-2.6,0.5-6.2l-0.1-0.2c-0.2-0.8-0.5-1.1-0.5-1.1l0,0c0,0-0.1,0-0.5,0
	s-0.7,0-1.1,0c-0.8,0-1.7,0.1-2.5,0c-1.7-0.1-3.2-0.2-4.9-0.5c-4.2-0.4-8.1-0.7-12.1-0.7c-1.7,0-3.2,0.1-4.9,0.2c-0.5,0-0.8,0-1.3,0
	c-7.3,0-14.5-5.1-19.1-13.3c-3.8-6.9-9.3-12.8-16.2-17.8c-1.8-1.3-3.6-2.1-5.3-2.5c-9.2-1.9-13.3-8.3-11.7-17.5
	c1.1-5.8,2.5-11.5,3.8-17.1l0.2-1.2c1.4-6.1,2-12.2,1.7-19.1c-0.1-2.5-0.7-5.7-2.6-7c-1.5-1.1-4.2-1.2-7.6-0.1
	c-1.4,0.5-2.7,1-4.2,1.5c-2.9,1.2-6.2,2.6-10.1,2.7c-0.6,0-1.1,0.2-1.3,0.6c-0.4,0.7-0.5,1.7,0,2.5c2.9,5.9,1,10.9-5.5,14.8
	c-5.3,3.2-9.4,6.4-11.8,11.6c-2.1,4.6-6.5,7.5-12.2,7.8c-4.3,0.4-7.1,1.8-8.9,4.4c-1.1,1.5-1.5,3-1.3,3.9c0.2,0.8,1,1.7,2.1,2.4
	c8.9,5.2,13.1,16.4,9,24.8c-2.9,6.1-7.7,14.5-17.2,18.1c-3.2,1.2-4.4,2.7-4.8,6.4c-0.1,1.1-0.2,2.1-0.2,3.3c-0.2,3-0.5,5.9-1.3,8.9
	c-2.3,8.2-5.9,11-14,10.9H433c-2.7,0-5.6,0.4-8.6,1.2c-5.3,1.4-7.1,3.9-6.1,8.8c0.7,3.3,1.3,7-0.8,9.4c-1.5,1.8-3.9,1.9-5.6,1.9
	c-1.1,0-2.3-0.1-3.9-0.4c-0.7-0.1-1.9,0-3.1,0c-0.8,0-1.5,0.1-2.4,0.1c-2.7,0-6.5-0.5-9-4.5c-0.6,0.1-1.2,0.2-1.7,0.4
	c-5.1,1.9-9.7,0.5-13.3-3.9l-0.6-0.7c-1.1-1.3-2.3-2.7-3.1-4.3c-1.4-2.5-2.9-2.9-3.8-2.9c-0.7,0-1.5,0.2-2.5,0.6
	c-1.4,0.6-2.9,0.8-4.2,0.8c-3.1,0-5.7-1.3-8-2.5c-0.5-0.2-1-0.5-1.4-0.7c-2.4,3-6.2,6.4-11.9,6.4c-0.7,0-1.5,0-2.4-0.1
	c-0.1,0.1-0.5,0.6-0.8,1.3c-0.2,0.5-0.6,1.1-1,1.5c-4.2,5.9-12.8,10.1-20.9,10.1c-3,0-5.7-0.6-8-1.7c-1.1-0.5-1.9-0.7-2.6-0.7
	c-0.7,0-1.5,0.1-2.7,1.4c-9.2,9.4-20.4,10.1-33.2,10.1c-2.4,0-5.3-1.4-6.9-3.4c-1.2-1.4-2.5-2.9-3.8-4.3c-3.2-3.4-6.4-6.9-8.4-11.6
	c-1-2.1-2.1-4.4-3.9-6.2c-1-0.8-3.9-4-3.8-7.5c0.1-2.9-1.3-5.1-3.1-7.6c-0.8-1.2-1.7-2.5-2.4-3.9c-2.1-4.2-4.5-4.8-6.8-4.8
	c-1.9,0-4.3,0.6-7.3,1.3c-1,0.2-2,0-2.7-0.6c-0.7-0.6-1.1-1.7-1-2.6c0.1-1.1,0-2.1-0.2-3.4c-0.5-3.4-1.2-8.1,4.3-11.9
	c-0.1-0.6-0.6-1.3-1.5-1.8l-0.5-0.2c-2-1-3.7-1.7-5.6-1.9c-5.1-0.5-8.7-2.1-10.8-5.1c-1.9-2.7-2.3-6.4-1.1-10.8
	c0.4-1.2,0.6-2.4,0.8-3.6c1.4-6.2,3-12.5,8.6-17.5c0.7-0.7,1-2.3,0.5-3.9c-1.9-6.7-4.6-12.1-8.2-16.6c-4.5-5.6-4.4-10.9,0.6-16.6
	c1.7-1.9,2.5-3.4,2.4-4.5s-1.2-2.5-3.2-4c-10-8-22.3-11.3-36.5-9.9c-2,0.2-4,0.5-5.9,0.7H165c-0.8,0.1-1.8,0.2-2.6,0.4
	c-4.9,0.6-9.7,1.5-11.7,5c-4.6,8.8-12.4,9.5-19.3,10.1h-0.4c-5.1,0.5-8.8,2-11.5,5.1c-3.3,3.6-7.5,8.4-10.5,14
	c0.1,0.1,0.4,0.1,0.4,0.2c0.8,0.4,1.9,0.8,3,1.8c1,1,1.2,2.6,0.4,3.7c-1.3,1.9-2,3.7-1.8,5.7h4.2c1.3,0,2.4,0.8,2.9,2
	c2,5.8,0.1,10.6-5.5,13.4c-5.5,2.9-9.4,6.4-12.5,11.3c-4.3,6.7-11.2,10-20.1,9.7c-2-0.1-4.4-0.1-7-0.1c-2.1,0-4.4,0-6.5,0
	c-1.3,0-2.6,0-3.9,0c-2.4,0-4.6-0.2-6.2-2.1c-0.7-0.8-1.3-2.3-0.7-4.5c1-3.6-0.2-6.1-3.9-8.6c-1.3-0.8-1.7-2.5-1.1-3.8
	c4.8-9.4,12.6-10.6,18.8-10.6h1c3.4,0,6.8-0.1,9.9-1.8c-4.4-5.8-1.3-12,1.1-16.5c0.2-0.5,0.6-1.1,0.8-1.5c0.4-0.8,0.8-1.7,1.3-2.4
	c0.8-1.5,1.5-2.9,2.1-4.4c1.5-4.3,0.4-7.8-3.6-10.5c-6.4-4.4-9.5-9.6-10.1-17c-0.7-8.8,3.9-15.2,8-20.9l0.4-0.5
	c1.7-2.3,3.9-3.1,5.7-3.7c0.8-0.4,1.7-0.6,2.3-1c2.5-1.8,2.9-2.4,3-2.6l0,0c0,0-0.1-0.6-1.8-2.5c-0.6-0.6-1.4-1.2-2.4-1.8
	c-0.5-0.4-1.1-0.6-1.4-1c-1.2-0.8-1.5-2.4-1-3.7c2.9-5.7,7-7.8,10.6-9.9l0.2-0.1c6.1-3.2,10.8-7.5,14.1-12.5c2.6-4,5.6-6.7,9-8.1
	c7.7-3.1,14-8.8,20.1-14.1l0.1-0.1c1.8-1.5,3.6-3.2,5.3-4.8l0.2-0.1c1-0.8,2.7-2.4,2.9-3l0,0c0,0-0.1-0.6-1.7-1.7
	c-1.2-0.8-1.9-2-2-3.3c-0.2-1.7,0.5-3.4,2.1-5.5c5.1-6.3,4.4-12.8,1.9-20.8c-1.4-4.5-1.2-8.9,1-12.6c2.3-4.2,6.7-7.4,12.1-8.8
	c11.7-3.1,23.5-7.2,32.1-17.1c1.4-1.7,2.3-3.7,2.7-5c2.9-9.3,8.8-16.3,17.5-20.9c3.1-1.7,5.3-4,7.6-7.8c3.1-5.3,7-11.3,13.1-15.6
	c1.8-1.3,3.3-3,4.9-4.8c0.4-0.4,0.7-0.8,1.1-1.2c1.9-2.1,2.4-3.6,1.8-6.2c-0.6-2.7-1-5.6,0.7-7.8c1.8-2.4,5-2.6,7.8-2.7
	c1.7,0,2.7-0.5,3.9-1.5c0.5-0.5,1-1.1,1.5-1.5c1.7-1.8,3.6-3.8,6.1-4.8c1.9-0.7,2.7-1.5,2-4.3c-0.2-0.8-1.2-2-2.7-2.9
	c-1.1-0.5-2.3-0.7-2.9-0.4c-4.8,2.3-9.5,2.5-14.4,2.5h-1.1c-1.3,0-2.6,0-3.8,0c-0.2,0-0.5,0-0.7,0c-1.5,0-3.9-0.2-6.1-2.1
	c-0.5-0.5-0.8-1.1-1-1.8c-0.5-3.2,1.4-5.2,2.9-6.7l0.4-0.4c1.1-1.2,2.3-2,3.4-2.9c2.4-1.8,4-3,4.3-5.8c0.2-3.3,3.3-4.3,5.2-4.8
	c2.3-0.7,2.6-1,2.7-1.5c0.2-1.2,1.3-2.1,2.5-2.3c1.3-0.1,1.7-0.5,1.7-0.5c0.2-0.5-0.2-2.1-0.5-3c-0.2-0.7-0.4-1.3-0.5-1.9
	c-0.1-0.5-0.2-1-0.4-1.5c-0.6-2.7-1.5-6.8,3.1-9.7c1.2-0.8,2.5-1.2,3.8-1.2c3.1,0,5.3,2.4,6.7,3.8l0.2,0.2c0.7,0.7,1.2,0.8,1.5,0.8
	c0.7,0,1.8-0.5,2.7-1c4.4-2.1,8.9-1.9,13,0.7c1.7,1.1,2.7,1.5,3.6,1.5c0.5,0,0.8-0.1,1.3-0.4c1-0.6,1.9-1,2.9-1
	c1.5,0,2.6,0.8,3.2,1.3c0.1,0.1,0.2,0.2,0.4,0.2c1.8,1.2,2.4,3.1,1.8,5.5c0,0.1,0,0.2-0.1,0.2c-0.1,1.4-1.1,2.5-1.7,3.1
	c-0.1,0.1-0.2,0.4-0.4,0.5c-0.2,0.5-0.6,1-1,1.4c-1,1.4-1.1,1.7-1.1,2.1c0.2,0,0.6,0,0.7,0c0.7,0,1.4,0,2.3,0.2
	c1.9,0.5,4.4,1.9,5.2,6.3c0,0.2,0.1,0.4,0.2,0.6c6.2-4.5,12.6-6.1,19.6-4.8c0.7,0.1,1.4,0.2,2.1,0.2c4,0,7.4-2.3,11.2-4.9
	c0.5-0.4,1-0.7,1.4-1.1c-0.8-1.4-2.4-4.4,0.4-7.8c0.5-0.7,1.3-1.1,2.1-1.2h0.2c0.7,0,1.5,0.2,2,0.8c0.8,0.7,2.1,0.8,3.8,0.5
	c0.7-0.2,1-1.1,1.3-3.7v-0.2c0.5-4.3,3.6-5.1,5.5-5.3c-1-1-2.1-2.1-2.9-4c-0.5-1.4,0.2-3,1.7-3.7c5-2.1,9.7-5.2,14.4-8.2
	c3.7-2.3,7.4-4.8,11.3-6.8c1.2-0.6,2.9-0.2,3.7,0.8c2.6,3.4,3.4,6.4,2.9,9c-0.8,3.1-3.4,4.9-6.2,6.3c2.1,1.1,4.6,1.2,6.8,1.3
	c1.1,0,2.3,0.1,3.3,0.2c1.5,0.1,3,0.2,4.3,0.2c3,0,6.2-0.6,8.8-4.6c2.5-3.8,7.4-6.5,14.5-8c1.5-0.4,2.9-0.5,4-0.5
	c4.5,0,7.7,2,10.3,6.7c1.8,3.2,3.2,3.8,5.1,3.8c1,0,2-0.1,3.3-0.5c9.2-2.1,18-6.3,26.4-10.2l1.8-0.8c1.5-0.7,3-2.3,3.9-4.4
	c1.7-3.3,4.3-5,7.8-5c0.8,0,1.8,0.1,3,0.4c7.7,1.4,15.8,3.8,22.2,11c3.3,3.8,6.7,4.8,10.6,2.9c3.1-1.4,6.1-1.5,9.9-0.4
	c2,0.6,4,0.5,5.9-0.4c-0.2-0.1-0.5-0.2-0.7-0.5c-0.7-0.4-1.4-0.8-2.3-1.5c-1.2-1.1-1.3-2.9-0.4-4.2c1.9-2.3,4.4-3.4,6.7-4.4
	c1.5-0.7,2.9-1.3,3.9-2.1c1.5-1.3,3.6-1.7,5.6-1.2c2.7,0.7,5.2,3.2,6.4,6.3c0.4,0.8,0.6,1.7,1,2.4c1.7-1.3,1.9-2.4,1.2-4.5
	c-0.7-1.9-0.6-3.6,0.1-4.9c1-1.5,2.6-2.1,3.9-2.4c-0.8-1.7-1.2-1.7-2.4-1.7c-0.8,0-1.9,0.1-3.3,0.2c-2.4,0.2-4.6,1-6.9,1.8
	c-4.9,1.7-8.1,2.5-10.7,2.5c-4.9,0-7.7-2.7-13-8.7c-3.6-4-3.9-8.3-1-13.4c1.2-2.3,2.9-4,4.4-5.8c2.3-2.6,4.2-4.9,4.9-8
	c0.8-3.7,4.4-4.2,6.5-4.5c0.5-0.1,1-0.1,1.3-0.2c2.5-0.6,4.9-1.5,7.5-2.5c0.7-0.2,1.4-0.6,2.1-0.8c0-0.1,0.1-0.2,0.1-0.4
	c0.1-0.2,0.4-0.8,0.4-1c-0.2-1,0-1.8,0.6-2.5c0.6-0.7,1.4-1.1,2.3-1.1h0.2c7.6,0.2,10.5,0.6,12.2,4.8c1.1-1.3,2.6-2.4,5.2-2.4
	c3.6,0,6.1,1.9,6.4,5c0.1,0.6,0.2,1.5,0.7,1.9c0.5,0.4,1.7,0.5,3.3,0.2c0.1,0,0.2,0,0.5,0c1.2,0,2.1,0.7,2.6,1.7
	c1.9,4.2,1.1,7.7,0.4,10.6c-0.2,1.2-0.5,2.3-0.6,3.2c-0.1,2,1.2,4.5,3.2,6.3c1.7,1.4,3.6,2.1,5.1,1.8c0.1,0,0.2-0.1,0.4-0.1
	c0-0.1,0-0.6-0.2-1.2c-0.2-0.6-1.2-1.4-2.1-2.3c-0.6-0.5-1.1-1-1.5-1.4c-0.8-0.8-1.1-1.9-0.7-3c0.8-2.5,2.1-4,3.9-4.9
	c0.7-0.2,1.4-0.5,2.3-0.5c1.9,0,3.8,0.8,5.3,1.7c1.1,0.6,2.1,1.3,3.1,1.9c2.1,1.4,3.9,2.7,6.5,2.5h0.1c1,0,1.8,0.5,2.4,1.2
	c0.6,0.8,0.7,1.9,0.4,2.9c-1.7,4.4-1.2,7.1,1.4,9.5c3.7,3.2,7,3.7,10.9,1.9c9.4-4.3,19.3-4.8,28.8-5.2c2.1-0.1,4.2-0.2,6.3-0.4
	c4.2-0.2,7.7,1.5,9.7,5c2.7,4.6,6.9,7.4,13.3,8.6c3.8,0.7,5.9,3.4,7.7,5.6c1.1,1.3,2.1,2.6,3.1,2.9l0.7,0.2c3.9,1,8,2,10.5,7
	c3.3,6.8,7.3,10.8,12.4,12.7c2.3,0.8,4.4,2.7,6.1,5.1c1,1.3,2.3,2,3.8,2c0.8,0,1.7-0.2,2.5-0.5c1.7-0.7,3.3-1.1,4.9-1.1
	c3.7,0,6.3,1.9,8.2,3.7c0.5,0.5,1,1,1.4,1.3c1.9,1.8,3.3,3.2,5.6,3.3c2.9,0.2,6.9,4,6.5,7.1c-0.2,3.3,0.6,6.5,1.4,10
	c0.4,1.2,0.7,2.5,1,3.8c0.6,2.7,0.2,5-1,6.9c-1.3,2-3.6,3.2-6.7,3.8c-3.7,0.6-6.3,2.6-9.4,6.9l-1.7,2.4c-4.8,6.8-9.7,13.8-12.2,21.5
	l-0.2,1c-3,9.6-6.2,19.5-1.8,29.1c2.4,5.1,1,9.1-0.4,13.2l-0.4,0.8c-0.7,2.1-0.6,2.3-0.2,2.5c0.1,0.1,0.1,0.1,0.2,0.1
	c0.4,0,0.8-0.1,1.4-0.4c0.4-0.1,0.7-0.2,1.2-0.4c1.9-0.5,3.3-0.7,4.8-0.7c2.9,0,5,1.1,8.4,3.7c0.7-0.7,1.8-1.4,3.2-1.4
	c0.5,0,1.1,0.1,1.7,0.2c3.2,1.1,6.5,1.2,9.6,1.2h1.4c2.5,0,5.1,0,7.8,0.4c5.2,0.7,10,2.4,14.6,4c3.4,1.2,7.1,2.5,10.7,3.2
	c7.3,1.5,12,6.4,14.6,15.1c0.4,1.2-0.1,2.5-1.1,3.2c-0.5,0.4-1.1,0.7-1.7,1.1c-1.1,0.6-2,1.3-2.6,1.9c-0.5,0.6-0.8,1.2-0.7,1.7
	c0,0.4,0.2,0.6,0.5,1c1.8,1.4,3.7,2.7,5.7,4c1.8,1.2,3.6,2.4,5.2,3.7c0.5,0.4,0.8,0.5,1.1,0.5c0.4,0,0.7-0.1,1.4-0.4
	c1.5-0.6,3.1-0.8,4.8-0.8c4.5,0,8.2,2.5,10.5,4.3c2.3,1.9,4.5,3.9,6.5,5.8c1.8,1.5,3.4,3.2,5.2,4.8c2.9,2.4,5.8,2.6,9.7,0.8l1.5-0.7
	c2.1-1,4.4-2,6.3-3.2c3.9-2.5,5.5-5.2,5.1-8.9c-0.2-2.6,0.4-4.6,1.7-6.2c1.4-1.5,3.6-2.4,6.4-2.4c7.4,0,8.1-0.5,10.7-8
	c0.1-0.4,0.2-0.8,0.5-1.2c0.6-1.7,1.2-3.4,2.1-5.1c1.8-3.1,4.5-5.1,7.5-5.6c3.1-0.5,6.4,0.6,9.3,3.1c1.5,1.3,2.7,3,3.8,4.4
	c1.8,2.3,3.2,4.3,5.7,5.2c3.4,1.3,3.7,5.9,2.3,9.9c-1.2,3.3-1,6.8-0.8,10.6v0.7c0.2,5.9,0,13.7-4,20.9c-0.6,1.1-0.8,2.1-0.7,3.6
	c0,0.6,0.1,1.2,0.2,1.7c0.6,4.4,1.3,10.2-5.1,14.1c-0.1,0-0.1,0.1-0.1,0.1s0,0.5,1.2,2.4l0.1,0.2c2.7,4.5,0.2,7.7-0.5,8.8
	c-2.4,3-3.6,4.6-3.7,5.8c-0.1,1.2,0.8,2.7,2.5,5.6c1.9-0.4,3.4-0.6,4.9-0.6c4.5,0,7.3,1.9,9.6,6.5c4.2,8.3,1.8,18.9-3.2,22.9
	c-1.5,1.3-3.4,1.9-5.8,1.9c-1.2,0-2.4-0.1-3.4-0.4c-0.4,0-0.7-0.1-1.2-0.1c-1.5-0.2-3-0.6-4.4-1c-1.7-0.5-3.1-1-4.5-1
	c-1.1,0-1.9,0.2-2.7,0.7c-1.9,1.2-4.4,0.7-6.9-1.3c-3.3-2.7-7.1-4.5-11.1-5.5c-0.8-0.2-3.1-0.7-4-2.7c-0.5-1-0.8-2.6,0.1-4.9
	c1-2.1,0.7-3.9-0.8-5.5c-1.3,1-2.9,1.4-4.6,1.4c-1.1,0-2.1-0.1-3-0.2c-1.2-0.2-2.5-0.4-3.3-0.1c-7.6,2-11.1,3.4-11.9,9.6
	c-0.2,2.1-1.4,4.4-3.6,6.8c-2.9,3.2-4,6.4-4,10.5c0,2.1-0.7,4.2-1.3,5.8c-0.6,1.8-1.2,3.4-1.1,5c0.2,3.7,2.1,6.5,4.3,9.9
	c0.5,0.7,1,1.4,1.3,2c2.1-1,4.2-1.4,6.1-1.4c6.4,0,10.2,5.2,12.6,9.1c0.1,0.1,0.1,0.1,0.2,0.2c0.2,0.1,0.4,0.4,0.6,0.5
	c0.7,0.7,1,1.5,0.8,2.5c-0.1,1-0.7,1.8-1.5,2.1c-0.2,0.1-0.5,0.4-0.8,0.7c-0.8,0.8-1.9,2-4,2.6c-3.8,1-5,3.9-6.5,8.6
	c-0.4,1.2-0.8,2.5-1.3,3.7c-0.2,0.7-0.2,1.4,0.1,2.3c0.8,1.9,3.3,3.8,6.2,4.9c0.4,0.1,0.6,0.2,1,0.4c2.6,0.8,7.1,2.3,7,8.4v0.2
	c0,4.5-0.1,11.4-6.9,13.5c-1.1,0.4-2.3,0.8-3.4,1.4c-2.3,1.1-5.1,2.5-8.2,2.5c-2.7,0-5.2-1.1-7.5-3.1c-0.8-0.7-1.2-1.9-0.8-3
	c1.7-5.6,1.7-5.6-3.3-8.3c-3.2-1.8-6.4-3.9-9-7.2c-3.7-4.8-4-9.3-1.2-13.4c0.2-0.4,0.4-0.5,0.4-0.6c-0.2-0.2-0.6-0.7-1-1.1
	c-0.2-0.2-0.5-0.5-0.7-0.8c-1.9-2.1-3.9-3.1-6.4-3.1c-1.9,0-4,0.6-6.2,1.1c-1.5,0.4-3.2,0.8-4.9,1.1c-4.5,0.6-11.2,1.9-16.3,5.3
	c-1.3,0.8-2.6,1.3-3.9,1.3c-2,0-3.3-1.1-4.2-1.7c-0.7-0.6-1.1-0.6-1.3-0.6s-0.7,0.4-1,0.6c-0.8,0.7-1.1,1.1-0.4,2.5
	c1.2,2.9,2.4,6.2,0.8,10c-0.5,1.1-1.5,1.8-2.7,1.8h-0.1c-3.9-0.2-7.7-1-11.4-1.7c-4.8-0.8-9.2-1.7-13.8-1.5c-0.1,0-0.4,0-0.5,0
	c-5.6,0-10-3.3-13.4-10.2c-1.4-2.6-2.6-5.2-5.1-6.4c-9.3-4.8-9-13.4-7.7-21.3c0.5-2.6,0.5-5.2,0.6-7.7c0-2,0.1-4,0.4-6.2
	c0.1-0.7,0-0.8,0-0.8l0,0c0,0-0.1-0.1-0.5-0.4c-0.4-0.1-0.6-0.2-0.8-0.2c-0.1,0-0.5,0-1.1,0.7c-0.7,0.8-1.3,1.8-2,2.7
	c-1.4,2.1-3,4.5-5.8,6.1c-1,0.5-2.1,0.5-3.1-0.1c-4.5-3.1-4.4-7.6-4.3-10.8c0-0.2,0-0.5,0-0.7c-1.3,0.1-2.9,0.7-4.4,1.3
	c-2.3,0.8-4.8,1.8-7.5,1.7c-0.1,0.1-0.1,0.2-0.2,0.4c0,0.1-0.1,0.2,0,0.6c1.2,2.6,1.3,5,0.5,7.1c-0.8,2.1-2.7,3.8-5.5,5
	c-0.7,0.2-1.1,0.6-1.2,0.8c-0.4,0.8,0.6,2.9,1.1,3.9c2,4.4,3.6,8.8,4.9,12.6c4.2,12.2,2.6,25.2-4.9,38.6
	c-3.7,6.7-8.9,15.1-16.6,21.6c-2.4,2-4.4,4.4-6.5,7c-2.5,3-5,5.9-8.1,8.4c-0.4,0.5,0.1,2.7,0.4,3.7c0.1,0.4,0.1,0.7,0.2,1
	c1.3,7.1,0.5,10.1-6.9,12.2c-0.5,0.1-1.1,0.4-1.5,0.5c-0.8,0.2-1.7,0.5-2.5,0.7c-2,0.7-3,1.4-3.1,1.9c-0.1,0.2-0.2,1.1,1.2,2.9
	l0.2,0.4c2,2.9,4.2,5.7,3.4,9.1c-0.5,2.4-2.3,4.3-5.3,6.1c0,0.1-0.1,0.5,0,1c0.2,3.6,3.1,8.4,4.5,9c0.6,0.2,1.3,0.4,2.1,0.5
	c1.2,0.1,2.6,0.4,4,1l0.7,0.4c2.3,1,5.3,2.4,6.1,6.3c0.7,4.2-1.5,8.2-5.3,9.6c-1.9,0.7-3.2,1.7-3.6,2.6c-0.5,1.2,0.1,2.7,0.6,3.9
	c2,4.3-0.1,8.1-3.3,9.6C638,554,636.2,554.9,634.1,554.9z"/>
</svg>
