<?xml version="1.0" encoding="UTF-8"?>
<svg width="70px" height="45px" viewBox="0 0 70 45" version="1.1" xmlns="http://www.w3.org/2000/svg" xmlns:xlink="http://www.w3.org/1999/xlink">
    <!-- Generator: Sketch 63.1 (92452) - https://sketch.com -->
    <title>twitter</title>
    <desc>Created with Sketch.</desc>
    <defs>
        <polygon id="path-1" points="0 1.28e-05 31.999936 1.28e-05 31.999936 26.006784 0 26.006784"></polygon>
    </defs>
    <g id="Page-1" stroke="none" stroke-width="1" fill="none" fill-rule="evenodd">
        <g id="twitter03-2" transform="translate(-1546.000000, -2099.000000)">
            <g id="Group-Copy" transform="translate(1546.000000, 2099.000000)">
                <g id="twitter">
                    <path d="M64.9938646,0.5 L5.00613538,0.5 C3.75809433,0.5 2.6324794,1.00337183 1.81847439,1.81790531 C1.00267153,2.63423781 0.5,3.76282133 0.5,5.0093855 L0.5,39.9906145 C0.5,41.239634 1.0030612,42.3661561 1.81718203,43.1808055 C2.63286779,43.9970208 3.76054283,44.5 5.00613538,44.5 L64.9938646,44.5 C66.2419057,44.5 67.3675206,43.9966282 68.1815256,43.1820947 C68.9973285,42.3657622 69.5,41.2371787 69.5,39.9906145 L69.5,5.0093855 C69.5,3.76036603 68.9969388,2.63384391 68.182818,1.81919454 C67.3671322,1.00297921 66.2394572,0.5 64.9938646,0.5 Z" id="BG" stroke="#FFFFFF"></path>
                    <g id="Group-3" transform="translate(19.000000, 10.000000)">
                        <mask id="mask-2" fill="white">
                            <use xlink:href="#path-1"></use>
                        </mask>
                        <g id="Clip-2"></g>
                        <path d="M10.063808,26.0067968 C22.139712,26.0067968 28.743488,16.0021888 28.743488,7.3269888 C28.743488,7.0427008 28.737728,6.7596928 28.7248,6.4782208 C30.006592,5.5516288 31.120832,4.3954048 31.999936,3.0789248 C30.823616,3.6014208 29.557568,3.9536768 28.229696,4.1125248 C29.585088,3.2998528 30.625856,2.0137088 31.116608,0.4807808 C29.847744,1.2327808 28.443328,1.7798528 26.947904,2.0742528 C25.749824,0.7982208 24.043584,1.28e-05 22.155584,1.28e-05 C18.5296,1.28e-05 15.589312,2.9403008 15.589312,6.5648768 C15.589312,7.0802048 15.64704,7.5810688 15.75968,8.0618368 C10.303424,7.7875328 5.464896,5.1749248 2.227264,1.2024448 C1.662912,2.1724288 1.338048,3.2998528 1.338048,4.5022848 C1.338048,6.7800448 2.497216,8.7907968 4.259648,9.9671168 C3.182784,9.9339648 2.170944,9.6380288 1.28608,9.1457408 C1.284672,9.1731328 1.284672,9.2006528 1.284672,9.2294528 C1.284672,12.4094848 3.547968,15.0639488 6.551872,15.6659328 C6.000448,15.8159488 5.420224,15.8969728 4.821184,15.8969728 C4.398144,15.8969728 3.986752,15.8549888 3.587008,15.7784448 C4.42272,18.3868288 6.846272,20.2849408 9.720256,20.3384448 C7.472704,22.0994688 4.642112,23.1488128 1.566144,23.1488128 C1.036352,23.1488128 0.513856,23.1184768 -6.4e-05,23.0578048 C2.905664,24.9199488 6.35552,26.0067968 10.063808,26.0067968" id="Fill-1" fill="#FFFFFF" mask="url(#mask-2)"></path>
                    </g>
                </g>
            </g>
        </g>
    </g>
</svg>