<?xml version="1.0" encoding="utf-8"?>
<!-- Generator: Adobe Illustrator 17.1.0, SVG Export Plug-In . SVG Version: 6.00 Build 0)  -->
<!DOCTYPE svg PUBLIC "-//W3C//DTD SVG 1.1//EN" "http://www.w3.org/Graphics/SVG/1.1/DTD/svg11.dtd">
<svg version="1.1" id="Layer_1" xmlns="http://www.w3.org/2000/svg" xmlns:xlink="http://www.w3.org/1999/xlink" x="0px" y="0px"
	 viewBox="0 0 36 52" enable-background="new 0 0 36 52" xml:space="preserve">
<g>
	<g>
		<path fill="#009688" d="M13.83,16.857c2.655-1.895,6.373-1.659,8.755,0.722c2.381,2.381,2.617,6.1,0.722,8.755l2.535,2.535
			c1.478-1.832,2.284-4.094,2.284-6.481c0-2.765-1.077-5.364-3.032-7.319c-1.955-1.955-4.554-3.032-7.319-3.032
			c-2.387,0-4.648,0.806-6.481,2.284L13.83,16.857z"/>
		<path d="M21.619,27.992c-2.647,1.807-6.294,1.541-8.642-0.805c-2.347-2.347-2.613-5.995-0.805-8.642l-2.536-2.536
			c-1.421,1.812-2.2,4.028-2.2,6.368c0,2.765,1.077,5.364,3.032,7.319c1.955,1.955,4.554,3.032,7.319,3.032
			c2.339,0,4.555-0.778,6.368-2.2L21.619,27.992z"/>
	</g>
	<path d="M17.781,38.883c-9.098,0-16.5-7.402-16.5-16.5s7.402-16.5,16.5-16.5s16.5,7.402,16.5,16.5S26.879,38.883,17.781,38.883z
		 M17.781,8.883c-7.444,0-13.5,6.056-13.5,13.5s6.056,13.5,13.5,13.5s13.5-6.056,13.5-13.5S25.226,8.883,17.781,8.883z"/>
</g>
<rect x="2.032" y="21.181" transform="matrix(0.7071 0.7071 -0.7071 0.7071 21.0573 -5.9645)" width="31.392" height="2.511"/>
</svg>
