<?xml version="1.0" encoding="utf-8"?>
<!-- Generator: Adobe Illustrator 17.1.0, SVG Export Plug-In . SVG Version: 6.00 Build 0)  -->
<!DOCTYPE svg PUBLIC "-//W3C//DTD SVG 1.1//EN" "http://www.w3.org/Graphics/SVG/1.1/DTD/svg11.dtd">
<svg version="1.1" id="Layer_1" xmlns="http://www.w3.org/2000/svg" xmlns:xlink="http://www.w3.org/1999/xlink" x="0px" y="0px"
	 viewBox="0 0 72 52" enable-background="new 0 0 72 52" xml:space="preserve">
<g>
	<g>
		<path fill="#009688" d="M13.83,16.857c2.655-1.895,6.373-1.659,8.755,0.722c2.381,2.381,2.617,6.1,0.722,8.755l2.535,2.535
			c1.478-1.832,2.284-4.094,2.284-6.481c0-2.765-1.077-5.364-3.032-7.319c-1.955-1.955-4.554-3.032-7.319-3.032
			c-2.387,0-4.648,0.806-6.481,2.284L13.83,16.857z"/>
		<path d="M21.619,27.992c-2.647,1.807-6.294,1.541-8.642-0.805c-2.347-2.347-2.613-5.995-0.805-8.642l-2.536-2.536
			c-1.421,1.812-2.2,4.028-2.2,6.368c0,2.765,1.077,5.364,3.032,7.319c1.955,1.955,4.554,3.032,7.319,3.032
			c2.339,0,4.555-0.778,6.368-2.2L21.619,27.992z"/>
	</g>
	<path d="M17.781,38.883c-9.098,0-16.5-7.402-16.5-16.5s7.402-16.5,16.5-16.5s16.5,7.402,16.5,16.5S26.879,38.883,17.781,38.883z
		 M17.781,8.883c-7.444,0-13.5,6.056-13.5,13.5s6.056,13.5,13.5,13.5s13.5-6.056,13.5-13.5S25.226,8.883,17.781,8.883z"/>
</g>
<g>
	<path d="M53.792,38.883c-9.098,0-16.5-7.402-16.5-16.5s7.402-16.5,16.5-16.5s16.5,7.402,16.5,16.5S62.89,38.883,53.792,38.883z
		 M53.792,8.883c-7.444,0-13.5,6.056-13.5,13.5s6.056,13.5,13.5,13.5s13.5-6.056,13.5-13.5S61.236,8.883,53.792,8.883z"/>
	<g id="TcAFxh.tif_21_">
		<g>
			<path d="M45.591,21.366c0-1.424,0-2.848,0-4.273c0.192-0.929,0.755-1.481,1.688-1.654c1.401,0,2.802,0,4.204,0
				c1.221,0.428,1.679,0.951,1.681,1.948c0.004,2.291,0.017,4.582-0.004,6.873c-0.015,1.655-0.691,3.008-2.002,4.026
				c-0.805,0.625-1.737,0.931-2.741,1.039c-0.345,0-0.689,0-1.034,0c-0.396-0.137-0.562-0.414-0.529-0.831
				c0.018-0.234,0.003-0.47,0.003-0.706c0-0.867,0.14-1.007,1.008-1.007c1.798,0,2.821-1.058,2.764-2.858
				c-0.017-0.518-0.409-0.904-0.929-0.907c-0.585-0.003-1.173-0.035-1.756,0.006C46.739,23.108,45.818,22.557,45.591,21.366z"/>
			<path d="M61.993,17.163c0,2.458,0,4.916,0,7.374c-0.011,0.055-0.027,0.109-0.033,0.164c-0.142,1.448-0.78,2.63-1.916,3.537
				c-0.819,0.654-1.773,0.978-2.806,1.088c-0.345,0-0.689,0-1.034,0c-0.397-0.137-0.562-0.414-0.529-0.831
				c0.018-0.234,0.003-0.47,0.003-0.706c0-0.867,0.14-1.007,1.009-1.007c1.798,0,2.821-1.059,2.763-2.858
				c-0.017-0.518-0.409-0.903-0.93-0.906c-0.752-0.004-1.504,0.006-2.256-0.004c-0.914-0.012-1.748-0.684-1.805-1.591
				c-0.076-1.195,0.004-2.399-0.056-3.595c-0.06-1.198,0.415-2.159,1.697-2.389c1.401,0,2.802,0,4.204,0
				C61.263,15.626,61.828,16.199,61.993,17.163z"/>
		</g>
	</g>
</g>
<g>
	<path d="M47.725,50l-1.751-3.292h-1.121V50h-2.073v-9.133h3.292c1.934,0,3.53,0.673,3.53,2.844c0,1.345-0.658,2.199-1.625,2.634
		L50.035,50H47.725z M44.853,45.069h1.051c1.078,0,1.667-0.462,1.667-1.358s-0.589-1.205-1.667-1.205h-1.051V45.069z"/>
	<path d="M51.39,40.867h5.729v1.737h-3.655v1.835h3.109v1.723h-3.109v2.102h3.796V50H51.39V40.867z"/>
	<path d="M59.033,40.867h5.771v1.737h-3.698v2.115h3.152v1.736h-3.152V50h-2.073V40.867z"/>
</g>
</svg>
