<?xml version="1.0" encoding="utf-8"?>
<!-- Generator: Adobe Illustrator 17.1.0, SVG Export Plug-In . SVG Version: 6.00 Build 0)  -->
<!DOCTYPE svg PUBLIC "-//W3C//DTD SVG 1.1//EN" "http://www.w3.org/Graphics/SVG/1.1/DTD/svg11.dtd">
<svg version="1.1" id="Layer_1" xmlns="http://www.w3.org/2000/svg" xmlns:xlink="http://www.w3.org/1999/xlink" x="0px" y="0px"
	 viewBox="0 0 120 58" enable-background="new 0 0 120 58" xml:space="preserve">
<g>
	<g>
		<g>
			<path fill="#009688" d="M13.736,22.654c2.655-1.895,6.373-1.659,8.755,0.722c2.381,2.381,2.617,6.1,0.722,8.755l2.535,2.535
				c1.478-1.832,2.284-4.094,2.284-6.481c0-2.765-1.077-5.364-3.032-7.319c-1.955-1.955-4.554-3.032-7.319-3.032
				c-2.387,0-4.648,0.806-6.481,2.284L13.736,22.654z"/>
			<path d="M21.526,33.789c-2.647,1.807-6.294,1.541-8.642-0.805c-2.347-2.347-2.613-5.995-0.805-8.642l-2.536-2.536
				c-1.421,1.812-2.2,4.028-2.2,6.368c0,2.765,1.077,5.364,3.032,7.319c1.955,1.955,4.554,3.032,7.319,3.032
				c2.339,0,4.555-0.778,6.368-2.2L21.526,33.789z"/>
		</g>
		<path d="M17.688,44.68c-9.098,0-16.5-7.402-16.5-16.5s7.402-16.5,16.5-16.5s16.5,7.402,16.5,16.5S26.785,44.68,17.688,44.68z
			 M17.688,14.68c-7.444,0-13.5,6.056-13.5,13.5s6.056,13.5,13.5,13.5s13.5-6.056,13.5-13.5S25.132,14.68,17.688,14.68z"/>
	</g>
	<g>
		<g>
			<path d="M53.699,44.68c-9.098,0-16.5-7.402-16.5-16.5s7.402-16.5,16.5-16.5s16.5,7.402,16.5,16.5S62.796,44.68,53.699,44.68z
				 M53.699,14.68c-7.444,0-13.5,6.056-13.5,13.5s6.056,13.5,13.5,13.5s13.5-6.056,13.5-13.5S61.143,14.68,53.699,14.68z"/>
			<g id="TcAFxh.tif_22_">
				<g>
					<path d="M45.498,27.163c0-1.424,0-2.848,0-4.273c0.192-0.929,0.755-1.481,1.688-1.654c1.401,0,2.802,0,4.204,0
						c1.221,0.428,1.679,0.951,1.681,1.948c0.004,2.291,0.017,4.582-0.004,6.873c-0.015,1.655-0.691,3.008-2.002,4.026
						c-0.805,0.625-1.737,0.931-2.741,1.039c-0.345,0-0.689,0-1.034,0c-0.396-0.137-0.562-0.414-0.529-0.831
						c0.018-0.234,0.003-0.47,0.003-0.706c0-0.867,0.14-1.007,1.008-1.007c1.798,0,2.821-1.058,2.764-2.858
						c-0.017-0.518-0.409-0.904-0.929-0.907c-0.585-0.003-1.173-0.035-1.756,0.006C46.645,28.905,45.724,28.354,45.498,27.163z"/>
					<path d="M61.899,22.959c0,2.458,0,4.916,0,7.374c-0.011,0.055-0.027,0.109-0.033,0.164c-0.142,1.448-0.78,2.63-1.916,3.537
						c-0.819,0.654-1.773,0.978-2.806,1.088c-0.345,0-0.689,0-1.034,0c-0.397-0.137-0.562-0.414-0.529-0.831
						c0.018-0.234,0.003-0.47,0.003-0.706c0-0.867,0.14-1.007,1.009-1.007c1.798,0,2.821-1.059,2.763-2.858
						c-0.017-0.518-0.409-0.903-0.93-0.906c-0.752-0.004-1.504,0.006-2.256-0.004c-0.914-0.012-1.748-0.684-1.805-1.591
						c-0.076-1.195,0.004-2.399-0.056-3.595c-0.06-1.198,0.415-2.159,1.697-2.389c1.401,0,2.802,0,4.204,0
						C61.17,21.422,61.734,21.995,61.899,22.959z"/>
				</g>
			</g>
		</g>
		<g>
			<path d="M47.725,55.796l-1.751-3.292h-1.121v3.292h-2.073v-9.133h3.292c1.934,0,3.53,0.673,3.53,2.844
				c0,1.345-0.658,2.199-1.625,2.634l2.059,3.655H47.725z M44.853,50.865h1.051c1.078,0,1.667-0.462,1.667-1.358
				s-0.589-1.205-1.667-1.205h-1.051V50.865z"/>
			<path d="M51.39,46.663h5.729V48.4h-3.655v1.835h3.109v1.723h-3.109v2.102h3.796v1.736H51.39V46.663z"/>
			<path d="M59.033,46.663h5.771V48.4h-3.698v2.115h3.152v1.736h-3.152v3.544h-2.073V46.663z"/>
		</g>
	</g>
	<g>
		<g>
			<path d="M83.144,53.625h-2.802l-0.561,2.171h-2.101l2.871-9.133h2.466l2.871,9.133h-2.185L83.144,53.625z M82.724,52.014
				l-0.225-0.84c-0.252-0.911-0.49-1.989-0.742-2.941h-0.056c-0.211,0.966-0.463,2.031-0.715,2.941l-0.225,0.84H82.724z"/>
			<path d="M87.439,53.233c0.645,0.561,1.485,0.953,2.241,0.953c0.854,0,1.274-0.336,1.274-0.882c0-0.575-0.518-0.757-1.316-1.093
				l-1.177-0.504c-0.952-0.378-1.849-1.163-1.849-2.493c0-1.513,1.358-2.717,3.25-2.717c1.05,0,2.157,0.42,2.941,1.205l-1.037,1.303
				c-0.602-0.462-1.176-0.729-1.904-0.729c-0.701,0-1.163,0.308-1.163,0.826c0,0.561,0.603,0.756,1.4,1.079l1.163,0.477
				c1.106,0.448,1.807,1.19,1.807,2.479c0,1.513-1.261,2.83-3.432,2.83c-1.19,0-2.451-0.448-3.39-1.316L87.439,53.233z"/>
			<path d="M94.593,46.664h2.073v3.74h0.042l2.731-3.74h2.256l-2.76,3.642l3.277,5.491h-2.269l-2.214-3.852l-1.064,1.401v2.451
				h-2.073V46.664z"/>
		</g>
		<g>
			<g>
				<path d="M89.792,44.724c-9.098,0-16.5-7.402-16.5-16.5s7.402-16.5,16.5-16.5s16.5,7.402,16.5,16.5S98.89,44.724,89.792,44.724z
					 M89.792,14.724c-7.444,0-13.5,6.056-13.5,13.5s6.056,13.5,13.5,13.5s13.5-6.056,13.5-13.5S97.236,14.724,89.792,14.724z"/>
				<g id="QRzYJ5.tif_28_">
					<g>
						<path d="M89.071,18.509c0.557,0,1.113,0,1.67,0c0.183,0.106,0.244,0.263,0.237,0.474c-0.013,0.43-0.004,0.86-0.004,1.29
							c0,0.162,0,0.325,0,0.438c0.563,0.158,1.096,0.287,1.615,0.458c0.656,0.216,1.233,0.58,1.744,1.043
							c0.182,0.164,0.205,0.281,0.102,0.468c-0.288,0.526-0.582,1.05-0.872,1.575c-0.081,0.148-0.209,0.208-0.363,0.176
							c-0.093-0.02-0.183-0.078-0.261-0.137c-0.983-0.743-2.055-1.213-3.321-1.078c-0.568,0.06-1.084,0.25-1.488,0.674
							c-0.534,0.56-0.504,1.426,0.056,1.953c0.298,0.281,0.629,0.51,1.005,0.667c0.652,0.272,1.308,0.536,1.962,0.804
							c0.907,0.372,1.797,0.769,2.55,1.427c0.694,0.607,1.048,1.373,1.125,2.265c0.165,1.917-0.868,3.609-2.643,4.354
							c-0.382,0.16-0.789,0.259-1.212,0.394c0,0.036,0,0.104,0,0.172c0,0.531-0.005,1.062,0.003,1.593
							c0.003,0.18-0.047,0.321-0.198,0.421c-0.595,0-1.189,0-1.784,0c-0.158-0.141-0.195-0.318-0.19-0.525
							c0.012-0.487,0.004-0.974,0.004-1.461c0-0.08,0-0.16,0-0.195c-0.533-0.153-1.036-0.275-1.524-0.444
							c-0.896-0.31-1.684-0.809-2.367-1.466c-0.232-0.223-0.232-0.358-0.041-0.61c0.336-0.443,0.673-0.886,1.012-1.328
							c0.187-0.243,0.378-0.255,0.606-0.055c0.846,0.743,1.81,1.244,2.936,1.393c0.732,0.096,1.42-0.018,2.04-0.455
							c0.599-0.423,0.94-1.455,0.249-2.159c-0.212-0.217-0.47-0.412-0.744-0.541c-0.747-0.353-1.51-0.674-2.273-0.993
							c-0.748-0.313-1.485-0.646-2.135-1.139c-1.308-0.992-1.814-2.306-1.479-3.908c0.254-1.217,1.039-2.053,2.089-2.661
							c0.502-0.29,1.049-0.462,1.631-0.582c0-0.074,0-0.142,0-0.21c0-0.538,0.008-1.075-0.004-1.613
							C88.8,18.764,88.875,18.609,89.071,18.509z"/>
					</g>
				</g>
			</g>
			<circle cx="104.819" cy="13.739" r="11.704"/>
			<g>
				<path fill="#FFFFFF" d="M105.651,10.435c0-0.697-0.459-1.071-1.139-1.071c-0.629,0-1.088,0.323-1.547,0.782l-1.377-1.258
					c0.765-0.918,1.835-1.547,3.093-1.547c1.92,0,3.365,0.901,3.365,2.907c0,2.107-2.549,2.736-2.346,4.759h-2.193
					C103.17,12.678,105.651,11.709,105.651,10.435z M104.598,16.992c0.867,0,1.513,0.68,1.513,1.581
					c0,0.884-0.646,1.564-1.513,1.564c-0.867,0-1.496-0.68-1.496-1.564C103.102,17.672,103.731,16.992,104.598,16.992z"/>
			</g>
		</g>
	</g>
</g>
</svg>
